<svg xmlns="http://www.w3.org/2000/svg" viewBox="0 0 229.21 244.35"><defs><style>.a{fill:#fcfdfd;}.b{fill:#316aaa;}.c{fill:#4575ac;}.d{fill:#7fccee;}</style></defs><path class="a" d="M340.81,311.27h.06c1,0,1.56-.49,1.27-1.61a2,2,0,0,0,.17-.37l1.95,1.71c1.16,1,2.65,1.9,3.86.72,1.79-1.72-1.17-1.81-1.27-2.9-.15-1.63-1.07-3.51.7-4.77,1.4-1,1.47-1.86,0-2.66-1-.56-.8-1.57-1.09-2.41-1.66-1.72-3.72.09-5.49-.67l-.14-.08c-.11-.39-.33-.57-.72-.33a2,2,0,0,0-.44-.22,3.76,3.76,0,0,0-5.32-.06l-.05.06a2.37,2.37,0,0,0-.47.25c-.4-.24-.59,0-.65.36a4,4,0,0,0-1.55,5c.82,2.16,2.65,3.15,5,3.36.64.05,2.11.44,1.82,1.66s-1.41,1.52-2.58,1.11c-.61-.21-1.19-.51-1.79-.77-.82-.37-1.79-1.1-2.43,0-.83,1.42,0,2.26,1.34,2.73l.89.37.24.13c1.89,1.37,3.76,1.6,5.61-.06l.36-.17C340.47,311.9,340.69,311.7,340.81,311.27Zm-66.55-7.18a1.48,1.48,0,0,0,.53.31c-.22.67-.43,1.34-.65,2-2.19,2.36-5.31,2.07-8,2.55-1.7.3-3-1.59-3.24-3.53a4.16,4.16,0,0,1,1.36-4.05,3.56,3.56,0,0,1,4.76-.21c1.14.87,2.26,1,3.18,0s-.25-1.73-.86-2.32c-2.15-2.12-6.59-2.12-9.26-.08a8,8,0,0,0-2,9.55c1.76,3.46,4.49,4.44,8.14,3.49,2.25-.58,4.35-2.39,7.15.09,1.4,1.23,6,1.56,7-.51,1.12-2.42,1.57-6.33-.89-8.81-2.2-2.22-4.87-1.55-7.27.16a.68.68,0,0,0-.73.64.65.65,0,0,0,.07.36C273.5,303.88,273.94,304,274.26,304.09Zm105.68,9.8-.29.11.19.49c1.79,2.78,4.36,2,6.73,1.36a3.94,3.94,0,0,0,2.69-4.45c-.29-3.31,1-6.75-.74-9.93-.06-.1-.27-.21-.35-.18-2.9,1.28-7.15-1.87-9,2.87l-1.78.06c-.85-2.81-3.2-3.71-5.34-2.77-2.73,1.2-5.39.66-8.07.92-.53-.18-.82-1-1.56-.62-1.79,2.85-.53,6-.74,9a1.32,1.32,0,0,0,1.15,1.45,1.61,1.61,0,0,0,.38,0c1-.06,1.35-.72,1.39-1.62,0-1.35,0-2.71.1-4.06a2.91,2.91,0,0,1,3.05-2.77l.24,0c2.21.44,1.1,2,.42,3.41-.86,1.75-.71,3.86,1.18,4.51,2.57.87,5.42,1.46,8-.47l1.7-1.08.93,1.14c-.07.81-.13,1.61-.19,2.42ZM304.26,200.18c-.75,1.41-.3,2.94-.43,4.41s-.42,2.48-2,2.53S300,205.88,300,204.6c-.05-1.09,0-2.18,0-3.27s0-2-1.38-2-1.55.81-1.54,1.89v6.13a2.85,2.85,0,0,0,2.4,2.85c5.67,1.39,7.46,0,7.47-5.84a25.49,25.49,0,0,0,0-3.27c-.23-1.8-.44-1.84-2.64-.92ZM231.67,206c.08.67.18,1.34.21,2,.08,1.61-.15,3.49,2.13,3.6s2.47-1.74,2.29-3.37c-.24-2.16,1.67-2.08,2.58-3,7.35-3.83,10.28-9,9.65-17-.66-8.41-9.12-15.86-15.94-14-7.86,2.11-12.43,7.51-12.77,15.12C219.45,197.19,223.66,203.11,231.67,206Zm16.9,96.69c0-7.69-3.83-13.16-11-15.53-1.32-.43-2.59-.63-2.52-2.49a1.24,1.24,0,0,0-1-1.44,1.11,1.11,0,0,0-.48,0,1.52,1.52,0,0,0-1.48,1.57v0c-.08,1.91-1.44,2.27-2.84,2.88-6.14,2.66-9.14,7.67-9.35,14.34-.21,6.84,2.76,11.84,8.68,15.29,3.17,1.84,5.35,2.87,9.33.89,6.28-3.16,10.66-8.17,10.66-15.59Zm65.69,6.1c1.2,1.09,0,3.7,2.28,3.48s1-2.35,1.33-3.6a5,5,0,0,0,0-1.22c-.06-1.64.22-3.19,2.22-3.07,1.84.11,1.53,1.81,1.8,3.11.35,1.65-1.14,4.71,1.48,4.64,2.91-.07.93-3.26,1.54-4.95a1.34,1.34,0,0,0,0-.4c0-2.38-.1-5.63-2.89-5.22-2.59.37-7.29-2.92-7.58,3.34-6.41-4.81-7.11-4.8-12.25.18-1-2.19-2.53-4.15-5.1-3.73-1.92.32-2.74.09-2.58-2,.07-1-.15-2-1.4-2a1.45,1.45,0,0,0-1.62,1.26,1.59,1.59,0,0,0,.06.61c.69,3.77-2.33,3.09-3.67,2.59-3.86-1.46-3.61.89-3.56,3.38a9.55,9.55,0,0,0,0,2c.49,1.73-1.37,4.87,1.48,5,2.65.08,1.33-3,1.39-4.6.08-2.27,1.27-3.54,3.09-3.44,2.23.12.86,2.28,1.18,3.51.39,1.48-.76,4.21.91,4.32,3,.21,6.64,1.89,9-1.87.42-.66.55-1.93,2-.89C309.26,313.45,309.33,313.4,314.26,308.79Zm-43.21-104c-1.27-2.73-3.46-3.36-5.62-4.06-.82-.26-2.15-.22-1.86-1.56s1.48-.83,2.34-.71a12.62,12.62,0,0,1,1.88.64,1.51,1.51,0,0,0,2-.8l0-.08a1.48,1.48,0,0,0-.69-2l-.08,0a7.46,7.46,0,0,0-7.25-.23,4,4,0,0,0-2.27,4.37c.4,2.6,2.44,3.33,4.58,3.86.39.09.78.15,1.17.25.79.22,1.64.54,1.56,1.52-.11,1.36-1.29,1.14-2.15,1.09a6.49,6.49,0,0,1-2.29-.57c-1.09-.51-2.16-.76-2.71.53-.67,1.59.68,2.14,1.73,2.65,3.59,1.71,7,.63,9.95-3.08,3.62,3.72,8.53,5.13,9.27,2.63.54-1.79,1.7-3.6,1.54-5.59a4.52,4.52,0,0,0-2-3.39c-3-2.21-6.1-.76-9.08,4.53Zm8.4-16.31c1-.37,2.47.93,3.57-.38s.2-8.6-1.34-9.56a6,6,0,0,0-5.74-.19c-1.81.76-1.51,1.8-.49,3.14.52.69-.64,1-.83,1.59-1.05,3.27-3.8.18-5.42,1.59-2,1.72-4,1.37-5.55-.65a4.25,4.25,0,0,1,.17-5.63c1.5-1.84,3.31-2.12,5.24-.6,1.15.9,2.46.93,3.13-.27.81-1.46-.78-2.12-1.67-2.73a6.31,6.31,0,0,0-2.94-1.09,7.61,7.61,0,0,0-6.09,13c2.59,2.45,5.64,2.58,8.88,1.11,1.09-.49,1.89-3,3.52-1s3.37,2,5.58,1.62Zm44.71,13.19c2.15.63,4.38-.32,6,.11,2.78.75,1.37,3.91,1.79,6l.09.39a2.63,2.63,0,0,0,2.23,2,2.1,2.1,0,0,0,2.21-.54c1-1.26-.26-1.8-.91-2.62-1-1.27-1.25-3.33-.27-4.16,3.5-3-.08-4.93-1.23-6-1.93-1.81-2.06,1.42-3.1,2.3s-1.65,1.68-3.06.78a5.4,5.4,0,0,0-2.67-.61c-2-.09-3.84.47-4.32,2.72-.51,2.44,1.22,3.29,3.14,3.87.78.23,1.94-.08,2,1.31-.91,1.2-1.94.47-2.91.26-.77-.17-1.73-.55-2,.44-.39,1.19.58,1.72,1.53,1.91a12.56,12.56,0,0,0,3.51.32c1.65-.17,3.14-.86,3.3-2.88s-.91-3-2.65-3.49C325.9,203.51,324.62,203.7,324.16,201.62Zm-29.74,5.47c0-7.88,0-7.85-5.84-7.75-3.37,0-4.93,2.32-5,5.18s1.18,5.53,4.53,5.64c2,.07,3.39.13,3.31,2.66a1.33,1.33,0,0,0,1.11,1.51,1.45,1.45,0,0,0,.36,0c1.19-.06,1.54-.86,1.54-1.94C294.42,210.63,294.42,208.86,294.42,207.09Zm-1.11-26.59v5.28c-.07,2.22.57,3.37,3,2.63a8.52,8.52,0,0,1,2.71.2c3.43.18,4.7-1.93,4.89-5,.2-3.48-1.62-5.92-4.64-5.75-2,.11-3.36.35-3-2.37.13-1-.26-1.91-1.53-1.83s-1.44.94-1.43,2c0,1.59,0,3.21,0,4.84Zm62.31,25.63c.06-5.67-1.51-7.21-5.88-6.81-3.62.33-2.1,3.23-2.93,5s-1.43,3.64.37,5.12c2.19,1.8,4.89.62,7.26.66,2,0,.75-2.71,1.18-4Zm38.8,102.36c1.41-.95,2.75-.59,4-.53,3.41.16,3.07-1.82,2-3.85-1.34-2.59-3.62-3.62-6.32-2.44a5.22,5.22,0,0,0-3.25,6.64l.12.31c1.06,3.19,3.53,4.19,6.63,3.55,1-.2,2.44-.34,2.31-1.71-.14-1.65-1.51-1-2.49-.85A2.51,2.51,0,0,1,394.42,308.49ZM383.26,204.91v3.26c0,1.08.35,2.25,1.75,2.13,1.24-.11,1.23-1.21,1.26-2.17,0-1.22,0-2.44.06-3.66a1.9,1.9,0,0,1,1.64-2.13,1.22,1.22,0,0,1,.27,0c1.42-.06,1.69,1,1.75,2.18.08,1.35,0,2.71.1,4.07.06,1.1.63,1.78,1.78,1.69s1.31-.81,1.32-1.7c0-1.89.08-3.8,0-5.69-.05-1.59-.63-3.25-2.27-3.4a37.91,37.91,0,0,0-7.22.34c-.2,0-.38,1.19-.42,1.84C383.2,202.74,383.26,203.83,383.26,204.91Zm-71,1.21c1.47-.11,2.48-.16,3.48-.26s2.58.44,3.08-1.07a3.72,3.72,0,0,0-.86-3.38c-2-2.8-4.39-2.65-6.91-1.11a5.48,5.48,0,0,0-1.49,7.49c1.38,2.22,5.4,3.25,7.42,2a1.4,1.4,0,0,0,.74-1.28c0-.87-.64-1-1.36-1C315.08,207.5,313.72,208.13,312.26,206.12ZM233.09,364v.1h7.54c1.29,0,2.46-.1,2.45-1.83,0-1.43-1-1.73-2.15-1.78a115.27,115.27,0,0,0-15.66-.08c-1.12.1-2.16.13-2.15,1.68s.84,1.89,2,1.9C227.81,364.05,230.45,364,233.09,364ZM375.84,199.3c-3.36.06-5.42,2.27-5.31,5.69a5.06,5.06,0,0,0,4.84,5.27,5.43,5.43,0,0,0,.9,0c3.28-.22,5.06-2.14,5.18-5.47a5.23,5.23,0,0,0-5-5.43,3.85,3.85,0,0,0-.59,0Zm-58.18-16h-.06v3.26c.06.91-.05,2,1.3,2.11,1.61.15,1.6-1,1.63-2.13s0-2.18,0-3.26c0-1.42.62-2.39,2.1-2.39s1.63,1.16,1.69,2.27,0,2.44.07,3.66c0,1,.35,1.92,1.6,1.84,1-.07,1.29-.85,1.31-1.71,0-1.76.06-3.53,0-5.29,0-1.55-.32-3.35-2-3.57a37.47,37.47,0,0,0-7.26.11c-.18,0-.37,1.2-.41,1.85C317.61,181.1,317.66,182.19,317.66,183.27Zm-1.54,0a5.5,5.5,0,1,0-11,.06c.2,3.34,2,5.18,5.33,5.29a5.23,5.23,0,0,0,5.65-4.75,5.43,5.43,0,0,0,0-.57Zm38.72,118a5.28,5.28,0,0,0-5.24,5.34c0,.13,0,.26,0,.4a5.42,5.42,0,0,0,5.31,5.37,5.58,5.58,0,0,0,.5-11.11A3.87,3.87,0,0,0,354.84,301.27Zm5.23-104.87c-.75,0-1.12.46-1.51,1.07-1,1.55-.52,10.74.79,12a2.76,2.76,0,0,0,3.65.45c1.31-.94.34-1.76-.34-2.66-1.37-1.82-1.33-3.58.24-5.44C363.87,200.64,361.54,196.44,360.07,196.4Zm-21.24,8.32a11.13,11.13,0,0,0,0,2c.23,1.3-.77,3.51,1.5,3.51s1.61-2.1,1.64-3.5c0-1.93-.21-3.88,2.19-4.64a1.47,1.47,0,0,0,.9-1.65c-.11-.83-.76-.84-1.47-.94C338.82,198.82,338.82,198.8,338.83,204.72ZM285.7,183.17v3.27c0,1.18.14,2.24,1.65,2.19s1.46-1.28,1.49-2.35c.07-2.35-.63-4.88,2.43-6.17.92-.39,1-1.78-.69-2.13C286.05,177.06,285.65,177.46,285.7,183.17Zm82.88,12.39c-4.26,4-2.57,8.44-2.95,12.37-.11,1.11.09,2.32,1.57,2.26s1.37-1.37,1.37-2.43c0-3.76,0-7.46,0-12.2ZM236.32,220c.06-1.78-.75-3-2.47-2.93s-1.93,1.54-1.95,3c0,1.72.56,3,2.46,2.84C236.11,222.8,236.34,221.45,236.32,220Zm-2.06,8.07c-1.71.05-2.13,1.33-2.27,2.72s.35,2.71,2,2.79,2.37-1,2.28-2.55C236.26,229.66,236,228.32,234.26,228.07Zm.41,123.59c-.09-1.3.26-3-1.77-2.92-1.46,0-1.52,1.25-1.52,2.36,0,1.31-.29,2.91,1.76,2.88,1.46,0,1.5-1.19,1.5-2.32Zm1.72-230c.09-1.77-1-2-2.36-1.94s-1.95.63-1.8,2a2.23,2.23,0,0,0,2.33,2.12h.14c1.4.12,1.7-1,1.66-2.17Zm-.32,21.35c-.11-1.07.13-2.51-1.68-2.46-1.5.05-1.51,1.23-1.46,2.33s-.27,2.67,1.45,2.79,1.49-1.41,1.66-2.66Zm0,22.13c-.08-1.24.1-2.67-1.74-2.55-1.61.11-1.29,1.47-1.31,2.47,0,1.19-.17,2.67,1.69,2.53,1.55-.12,1.16-1.47,1.29-2.45Zm-3.22,177.62c1.36,0,1.79-.85,1.78-2.07s.3-2.53-1.5-2.62c-1.33-.06-1.86.66-1.77,2,.08,1.12-.24,2.49,1.48,2.69Zm.18-210.6c0,1.13-.45,2.55,1.43,2.63s1.72-1.24,1.82-2.45.21-2.26-1.25-2.44-2,.91-2,2.26Zm1.23,144.85c1.24-.3.94-1.66,1-2.82s-.4-1.92-1.6-1.79c-1.8.19-1.31,1.71-1.36,2.84S232.51,277.18,234.26,277.06Zm-19.79-154c1.16,0,2.55.24,2.53-1.64,0-1.65-1.29-1.44-2.3-1.46s-2.27-.31-2.29,1.39c-.07,1.43.74,1.87,2,1.7Zm19.79,116.35c-2.17-.07-2,1.15-2,2.24s-.22,2.66,1.64,2.59c1.34,0,1.31-1.18,1.29-2.1C235.14,241,235.59,239.52,234.26,239.41ZM202.09,121.28c.07,1.42.91,1.8,2.12,1.78s2.51.21,2.57-1.61c0-1.27-.86-1.54-1.85-1.5S202.47,119.6,202.09,121.28Zm-15.56.28c.13-1.66-1-1.69-2.07-1.63s-2.27-.29-2.5,1.27.71,1.86,1.93,1.83,2.52.44,2.64-1.47ZM236,154.31c0-1.25.07-2.52-1.62-2.55s-1.43,1.25-1.42,2.27-.39,2.61,1.36,2.76S235.84,155.45,236,154.31Zm-1,175c-.18-.76.33-2.3-1.5-2.33s-1.63,1.32-1.68,2.53,0,2.45,1.75,2.4,1.38-1.24,1.42-2.61ZM176.53,121.17c-.28-1.62-1.68-1.12-2.77-1.24S172,120,172,121.37c0,1.92,1.3,1.7,2.46,1.71S176.55,122.85,176.53,121.17Zm20.1.2c-.11-1.67-1.37-1.37-2.37-1.37s-2.24,0-2.15,1.63,1.28,1.44,2.33,1.48S196.58,122.83,196.63,121.37Zm30.32.18c.06-1.58-1-1.66-2.09-1.6s-2.26-.34-2.43,1.24c-.16,1.37.66,2,1.9,1.88,1-.07,2.46.34,2.59-1.52Zm8.22,131c-.16-.74.1-2.12-1.53-2s-1.28,1.4-1.32,2.4.09,2,1.35,2c1.59.07,1.38-1.21,1.47-2.5Zm0,11.08c-.17-.86.19-2.23-1.5-2.12s-1.32,1.41-1.33,2.43-.12,2.37,1.49,2.28,1.17-1.5,1.33-2.64Z" transform="translate(-171.95 -119.76)"/><path class="b" d="M248.57,302.65c0,7.42-4.38,12.43-10.67,15.55-4,2-6.16.95-9.33-.89-5.92-3.45-8.89-8.45-8.68-15.29.21-6.67,3.21-11.68,9.35-14.34,1.4-.61,2.76-1,2.84-2.88a1.53,1.53,0,0,1,1.46-1.6h0a1.23,1.23,0,0,1,1.47.95,1.29,1.29,0,0,1,0,.48c-.07,1.86,1.2,2.06,2.52,2.49C244.74,289.49,248.58,295,248.57,302.65Zm-14.17,9.41c1.53-.15,1.47-1.35,1.37-2.41-.32-3.57-.21-6.67,4.72-5.69a1.28,1.28,0,0,0,1.57-.88,1.34,1.34,0,0,0,0-.44c0-1.09-.44-2.06-1.57-1.85-4.9.93-5.09-2.08-4.74-5.7.11-1.13,0-2.26-1.6-2.12-1.43.12-1.68,1.15-1.57,2.31.31,3.47,0,6.29-4.58,5.52-1.06-.18-1.7.54-1.7,1.73,0,1,.62,1.62,1.48,1.44,4.84-1,5.1,2,4.8,5.63-.1,1.24,0,2.55,1.78,2.46Z" transform="translate(-171.95 -119.76)"/><path class="b" d="M231.67,206c-8-2.85-12.22-8.77-11.85-16.72.34-7.61,4.91-13,12.77-15.12,6.82-1.83,15.28,5.62,15.94,14,.63,8-2.3,13.19-9.65,17Zm2.86-25.45c-2.39.07-2,1.92-1.89,3.27.3,3.18-.49,5-4,4.49-1-.15-2.25,0-2.28,1.55s1.15,2,2.43,1.84c3.35-.53,4.12,1.16,3.92,4.21-.08,1.37-1,3.74,1.65,3.72,2.37,0,1.52-2.23,1.43-3.46-.23-3.14.42-5,4-4.49,1.26.19,2.44-.1,2.34-1.88-.09-1.59-1.28-1.68-2.3-1.52-3.57.58-4.34-1.26-4.06-4.43.13-1.2.74-2.85-1.19-3.34Z" transform="translate(-171.95 -119.76)"/><path class="c" d="M314.26,308.79c-4.93,4.61-5,4.66-10.88.34-1.42-1-1.55.23-2,.89-2.34,3.76-6,2.08-9,1.87-1.67-.11-.52-2.84-.91-4.32-.32-1.23,1-3.39-1.18-3.51-1.82-.1-3,1.17-3.09,3.44-.06,1.63,1.26,4.68-1.39,4.6-2.85-.09-1-3.23-1.48-5a9.55,9.55,0,0,1,0-2c0-2.49-.3-4.84,3.56-3.38,1.34.5,4.36,1.18,3.67-2.59a1.45,1.45,0,0,1,.95-1.82,1.41,1.41,0,0,1,.61-.05c1.25.05,1.47,1.05,1.4,2-.16,2.13.66,2.36,2.58,2,2.57-.42,4,1.54,5.1,3.73,5.14-5,5.84-5,12.25-.18.29-6.26,5-3,7.58-3.34,2.79-.41,2.9,2.84,2.89,5.22a1.34,1.34,0,0,1,0,.4c-.61,1.69,1.37,4.88-1.54,5-2.62.07-1.13-3-1.48-4.64-.27-1.3,0-3-1.8-3.11-2-.12-2.28,1.43-2.22,3.07a5,5,0,0,1,0,1.22c-.35,1.25,1,3.37-1.33,3.6S315.46,309.88,314.26,308.79Zm-5.91-4.68c-1.66.1-2.22,1.28-2.29,2.74a2.28,2.28,0,0,0,1.88,2.62l.48,0c1.7.05,2.29-1.22,2.27-2.69s-.6-2.65-2.34-2.7Zm-9.49,2.62c-.1-1.53-.66-2.7-2.38-2.58-1.48.11-1.93,1.19-1.92,2.58s.33,2.82,2.11,2.8S298.83,308.25,298.86,306.73Z" transform="translate(-171.95 -119.76)"/><path class="c" d="M271.07,204.74c3-5.29,6.08-6.7,9.07-4.56a4.52,4.52,0,0,1,2,3.39c.16,2-1,3.8-1.54,5.59-.74,2.5-5.65,1.09-9.27-2.63-2.94,3.71-6.36,4.79-9.95,3.08-1.05-.51-2.4-1.06-1.73-2.65.55-1.29,1.62-1,2.71-.53a6.49,6.49,0,0,0,2.29.57c.86.05,2,.27,2.15-1.09.08-1-.77-1.3-1.56-1.52-.39-.1-.78-.16-1.17-.25-2.14-.53-4.18-1.26-4.58-3.86a4,4,0,0,1,2.27-4.37,7.46,7.46,0,0,1,7.25.23,1.47,1.47,0,0,1,.81,1.91.36.36,0,0,0,0,.09,1.5,1.5,0,0,1-1.92.91l-.08,0a12.62,12.62,0,0,0-1.88-.64c-.86-.12-2.07-.55-2.34.71s1,1.3,1.86,1.56C267.61,201.38,269.8,202,271.07,204.74Zm4.85,2.15c1.66.92,2.78,1.11,3.77-.88-1.36,0-2.43-.62-3.77.88Z" transform="translate(-171.95 -119.76)"/><path class="c" d="M274.1,302.7c2.4-1.71,5.07-2.38,7.27-.16,2.46,2.48,2,6.39.89,8.81-1,2.07-5.57,1.74-7,.51-2.8-2.48-4.9-.67-7.15-.09-3.65,1-6.38,0-8.14-3.49a8,8,0,0,1,2-9.55c2.67-2,7.11-2,9.26.08.61.59,1.75,1.28.86,2.32s-2,.91-3.18,0a3.56,3.56,0,0,0-4.76.21,4.16,4.16,0,0,0-1.36,4.05c.28,1.94,1.54,3.83,3.24,3.53,2.71-.48,5.83-.19,8-2.55,1.56-1.23,3.83,0,5.63-1.43-1.77-1.92-3.4-1-5-.58a1.48,1.48,0,0,1-.53-.31A7.7,7.7,0,0,0,274.1,302.7Z" transform="translate(-171.95 -119.76)"/><path class="c" d="M279.47,188.43c-2.24.41-4.06.28-5.56-1.6-1.63-2.05-2.43.49-3.52,1-3.24,1.47-6.29,1.34-8.88-1.11a7.61,7.61,0,0,1,6.09-13.05,6.31,6.31,0,0,1,2.94,1.09c.89.61,2.48,1.27,1.67,2.73-.67,1.2-2,1.17-3.13.27-1.93-1.52-3.74-1.24-5.24.6a4.25,4.25,0,0,0-.17,5.63c1.54,2,3.58,2.37,5.55.65,1.62-1.41,4.37,1.68,5.42-1.59.19-.57,1.35-.9.83-1.59-1-1.34-1.32-2.38.49-3.14a6,6,0,0,1,5.74.19c1.54,1,2.51,8.17,1.34,9.56S280.51,188.06,279.47,188.43Zm-1-4.64c-1,.08-1.94.36-1.82,1.59s1.13,1.38,2,1.41a1.43,1.43,0,0,0,1.57-1.26.66.66,0,0,0,0-.14c.08-1.21-.83-1.49-1.77-1.6Zm0-3.42c-.73.16-1.37.29-1,1,.17.34.81.51,1.27.58s1.07-.23.77-.87c-.25-.4-.83-.55-1.08-.71Z" transform="translate(-171.95 -119.76)"/><path class="c" d="M324.16,201.62c.46,2.08,1.74,1.89,2.67,2.17,1.74.53,2.82,1.54,2.65,3.49s-1.65,2.71-3.3,2.88a12.56,12.56,0,0,1-3.51-.32c-1-.19-1.92-.72-1.53-1.91.32-1,1.28-.61,2.05-.44,1,.21,2,.94,2.91-.26-.1-1.39-1.26-1.08-2-1.31-1.92-.58-3.65-1.43-3.14-3.87.48-2.25,2.32-2.81,4.32-2.72a5.4,5.4,0,0,1,2.67.61c1.41.9,2.12,0,3.06-.78s1.17-4.11,3.1-2.3c1.15,1.09,4.73,3,1.23,6-1,.83-.74,2.89.27,4.16.65.82,1.89,1.36.91,2.62a2.1,2.1,0,0,1-2.21.54,2.63,2.63,0,0,1-2.23-2l-.09-.39c-.42-2.14,1-5.3-1.79-6C328.54,201.3,326.31,202.25,324.16,201.62Z" transform="translate(-171.95 -119.76)"/><path class="c" d="M377.58,311.19c-2.54,1.94-5.39,1.35-8,.48-1.89-.65-2-2.76-1.18-4.51.68-1.39,1.79-3-.42-3.41a2.9,2.9,0,0,0-3.27,2.5,1.94,1.94,0,0,0,0,.24c-.11,1.35-.05,2.71-.1,4.06a1.43,1.43,0,0,1-1.39,1.62,1.32,1.32,0,0,1-1.52-1.07,1.15,1.15,0,0,1,0-.37c.21-3-1.05-6.13.74-9,.2,3-.48,6.14.39,9.08l1.17-.07v-8.39c2.68-.26,5.34.28,8.07-.92,2.14-.94,4.49,0,5.34,2.77C377.47,306.55,377.53,308.87,377.58,311.19Z" transform="translate(-171.95 -119.76)"/><path class="c" d="M379.2,304.16c1.85-4.74,6.1-1.59,9-2.87a.54.54,0,0,1,.35.18c1.73,3.18.45,6.62.74,9.93a3.94,3.94,0,0,1-2.77,4.45c-2.37.68-4.94,1.42-6.73-1.35a.62.62,0,0,0,.1-.61l.13-.21c1.29.1,2.58.3,3.87.29,1.07,0,2.37-.4,2.19-1.69-.23-1.56-1.41-.39-2.17-.34-1.3.09-2.59.24-3.7-.68l-.93-1.14C379.26,308.13,379.26,306.15,379.2,304.16Zm4.94,5.4c1.88-.08,2.21-1.29,2.19-2.77s-.55-2.72-2.26-2.6a2.36,2.36,0,0,0-2.3,2.42,1.71,1.71,0,0,0,0,.31A2.52,2.52,0,0,0,384.14,309.56Z" transform="translate(-171.95 -119.76)"/><path class="c" d="M294.42,207.09v5.31c0,1.08-.35,1.88-1.54,1.94a1.32,1.32,0,0,1-1.47-1.52c.08-2.53-1.34-2.59-3.31-2.66-3.35-.11-4.61-2.85-4.53-5.64s1.63-5.13,5-5.18C294.47,199.24,294.46,199.21,294.42,207.09Zm-5.23-5a2.48,2.48,0,0,0-2.23,2.7v0c0,1.46.69,2.61,2.33,2.64s2.12-1.15,2.14-2.66-.55-2.61-2.24-2.76Z" transform="translate(-171.95 -119.76)"/><path class="c" d="M293.31,180.5v-4.87c0-1,.2-1.92,1.43-2s1.66.81,1.53,1.83c-.34,2.72,1.05,2.48,3,2.37,3-.17,4.84,2.27,4.64,5.75-.19,3.09-1.46,5.2-4.89,5a8.52,8.52,0,0,0-2.71-.2c-2.46.74-3.1-.41-3-2.63C293.35,184,293.31,182.26,293.31,180.5Zm5.08,0c-1.79.14-2.05,1.36-2.09,2.83-.05,1.65.64,2.63,2.25,2.56s2.29-1.23,2.23-2.75a2.53,2.53,0,0,0-2.39-2.62Z" transform="translate(-171.95 -119.76)"/><path class="c" d="M332.93,311.4c-1.32-.47-2.17-1.31-1.34-2.73.64-1.09,1.61-.36,2.43,0,.6.26,1.18.56,1.79.77,1.17.41,2.29.1,2.58-1.11s-1.18-1.61-1.82-1.66c-2.33-.21-4.16-1.2-5-3.36a4,4,0,0,1,1.55-5,.71.71,0,0,0,.65-.36,2.94,2.94,0,0,1,.46-.25h5.38a2,2,0,0,1,.44.22l.72.33.14.08c1.19,4.56-1.72,1.75-3,1.69s-2.67-.33-3.08,1c-.51,1.7,1.2,1.81,2.23,2.09,3.1.87,5.9,1.9,5.21,6.12a2,2,0,0,1-.17.37l-1.27,1.61h-.06l-.78.4-.35.17-5.62.06-.24-.13Z" transform="translate(-171.95 -119.76)"/><path class="c" d="M355.62,206.13c-.43,1.26.86,4-1.18,4-2.37,0-5.07,1.14-7.26-.66-1.8-1.48-1.26-3.25-.37-5.12s-.69-4.65,2.93-5C354.11,198.92,355.68,200.46,355.62,206.13ZM350.76,202l-.93.72a4.31,4.31,0,0,0,1.12.7c.24.05.57-.3.86-.47Z" transform="translate(-171.95 -119.76)"/><path class="c" d="M394.42,308.49c.9,1.44,1.95,1.28,3,1.12s2.35-.8,2.49.85c.13,1.37-1.33,1.51-2.31,1.71-3.1.64-5.57-.36-6.63-3.55a5.23,5.23,0,0,1,2.83-6.84l.3-.11c2.7-1.18,5-.15,6.32,2.44,1.05,2,1.39,4-2,3.85C397.17,307.9,395.83,307.54,394.42,308.49Z" transform="translate(-171.95 -119.76)"/><path class="c" d="M383.26,204.91c0-1.08-.05-2.17,0-3.25,0-.65.22-1.82.42-1.84a37.91,37.91,0,0,1,7.22-.34c1.64.15,2.22,1.81,2.27,3.4.07,1.89,0,3.8,0,5.69,0,.89-.34,1.62-1.32,1.7-1.15.09-1.72-.59-1.78-1.69-.07-1.36,0-2.72-.1-4.07-.06-1.14-.33-2.24-1.75-2.18a1.9,1.9,0,0,0-1.93,1.87,2.45,2.45,0,0,0,0,.27c0,1.22,0,2.44-.06,3.66,0,1,0,2.06-1.26,2.17s-1.75-.9-1.75-2.13S383.26,206,383.26,204.91Z" transform="translate(-171.95 -119.76)"/><path class="c" d="M312.26,206.12c1.49,2,2.85,1.38,4.1,1.35.72,0,1.33.16,1.36,1a1.4,1.4,0,0,1-.74,1.28c-2,1.26-6,.23-7.42-2a5.48,5.48,0,0,1,1.49-7.49c2.52-1.54,4.95-1.69,6.91,1.11a3.72,3.72,0,0,1,.86,3.38c-.5,1.51-2,1-3.08,1.07S313.7,206,312.26,206.12Z" transform="translate(-171.95 -119.76)"/><path class="c" d="M233.09,364h-7.93c-1.2,0-2-.48-2-1.9s1-1.58,2.15-1.68a115.27,115.27,0,0,1,15.66.08c1.18.05,2.13.35,2.15,1.78,0,1.73-1.16,1.85-2.45,1.83h-7.54Z" transform="translate(-171.95 -119.76)"/><path class="c" d="M375.84,199.33a5.22,5.22,0,0,1,5.6,4.83,4.26,4.26,0,0,1,0,.62c-.12,3.33-1.9,5.25-5.18,5.47a5.07,5.07,0,0,1-5.7-4.33,5.43,5.43,0,0,1,0-.9C370.42,201.6,372.48,199.39,375.84,199.33Zm2.49,5.52c-.11-1.51-.79-2.68-2.33-2.72s-2.39.91-2.43,2.56a2.33,2.33,0,0,0,1.92,2.67l.36,0c1.64.11,2.3-1,2.48-2.55Z" transform="translate(-171.95 -119.76)"/><path class="c" d="M317.66,183.27V180c0-.65.23-1.83.41-1.85a37.47,37.47,0,0,1,7.26-.11c1.68.22,2,2,2,3.57.05,1.76,0,3.53,0,5.29,0,.86-.29,1.64-1.31,1.71-1.25.08-1.56-.81-1.6-1.84-.06-1.22,0-2.44-.07-3.66s-.26-2.27-1.69-2.27-2.07,1-2.1,2.39v3.26c0,1.09,0,2.28-1.63,2.13-1.35-.11-1.24-1.2-1.3-2.11-.06-1.08,0-2.17,0-3.26Z" transform="translate(-171.95 -119.76)"/><path class="c" d="M316.12,183.3a5.22,5.22,0,0,1-5.07,5.36c-.2,0-.4,0-.6,0-3.31-.11-5.13-2-5.33-5.29a5.5,5.5,0,1,1,11-.06Zm-5.7-2.78a2.52,2.52,0,0,0-2.15,2.84c0,1.61.85,2.64,2.44,2.59s2.35-1.18,2.27-2.76a2.53,2.53,0,0,0-2.37-2.67,1.21,1.21,0,0,0-.19,0Z" transform="translate(-171.95 -119.76)"/><path class="c" d="M354.84,301.27a5.21,5.21,0,0,1,5.49,4.93,5.8,5.8,0,0,1,0,.59c0,3.35-2.17,5.61-5.4,5.59a5.42,5.42,0,0,1-5.31-5.37,5.29,5.29,0,0,1,4.82-5.73Zm.29,2.87c-1.86,0-2.48,1.23-2.49,2.69s.67,2.71,2.35,2.68a2.72,2.72,0,0,0,.14-5.37Z" transform="translate(-171.95 -119.76)"/><path class="c" d="M304.26,200.15c2.2-.92,2.41-.88,2.64.92a25.49,25.49,0,0,1,0,3.27c0,5.83-1.8,7.23-7.47,5.84a2.85,2.85,0,0,1-2.4-2.85c-.07-2,0-4.08,0-6.13,0-1.08.32-1.9,1.54-1.89s1.34,1.06,1.38,2,0,2.18,0,3.27c0,1.28.2,2.57,1.88,2.52s1.86-1.21,2-2.53-.32-3,.43-4.41c-.07,2.31-.1,4.61-.25,6.91,0,.75-.09,1.39.72,1.59.25.06.89-.34.87-.47C305.33,205.5,307.41,202.36,304.26,200.15Z" transform="translate(-171.95 -119.76)"/><path class="c" d="M360.07,196.4c1.47,0,3.8,4.24,2.83,5.39-1.57,1.86-1.61,3.62-.24,5.44.68.9,1.65,1.72.34,2.66a2.76,2.76,0,0,1-3.65-.45c-1.31-1.23-1.8-10.42-.79-12C359,196.86,359.32,196.38,360.07,196.4Z" transform="translate(-171.95 -119.76)"/><path class="c" d="M338.83,204.72c0-5.92,0-5.9,4.78-5.18.71.1,1.36.11,1.47.94a1.47,1.47,0,0,1-.9,1.65c-2.4.76-2.16,2.71-2.19,4.64,0,1.4.48,3.5-1.64,3.5s-1.27-2.21-1.5-3.51A11.59,11.59,0,0,1,338.83,204.72Z" transform="translate(-171.95 -119.76)"/><path class="c" d="M285.7,183.17c-.05-5.71.35-6.11,4.88-5.19,1.72.35,1.61,1.74.69,2.13-3.06,1.29-2.36,3.82-2.43,6.17,0,1.07.07,2.3-1.49,2.35s-1.66-1-1.65-2.19Z" transform="translate(-171.95 -119.76)"/><path class="d" d="M342.31,309.24c.69-4.22-2.11-5.25-5.21-6.12-1-.28-2.74-.39-2.23-2.09.41-1.36,1.87-1.08,3.08-1s4.17,2.87,3-1.69c1.77.76,3.83-1,5.49.67-2.77-.11-3.83,3.57-3.54,3.91,2.14,2.55.81,5.47,1.34,8.11Z" transform="translate(-171.95 -119.76)"/><path class="c" d="M368.58,195.56v12.2c0,1.06.14,2.36-1.37,2.43s-1.68-1.15-1.57-2.26C366,204,364.32,199.6,368.58,195.56Z" transform="translate(-171.95 -119.76)"/><path class="b" d="M344.26,311c-.53-2.64.8-5.56-1.34-8.11-.29-.34.77-4,3.54-3.91.29.84,0,1.85,1.09,2.41,1.47.8,1.4,1.66,0,2.66-1.77,1.26-.85,3.14-.7,4.77.1,1.09,3.06,1.18,1.27,2.9C346.87,312.9,345.38,312,344.26,311Z" transform="translate(-171.95 -119.76)"/><path class="d" d="M231.67,206l7.21-.79c-.91.95-2.82.87-2.58,3,.18,1.63,0,3.48-2.29,3.37s-2-2-2.13-3.6C231.85,207.3,231.75,206.63,231.67,206Z" transform="translate(-171.95 -119.76)"/><path class="d" d="M236.32,220c0,1.46-.21,2.81-2,2.92s-2.47-1.12-2.46-2.84c0-1.46.33-2.91,1.95-3S236.38,218.22,236.32,220Z" transform="translate(-171.95 -119.76)"/><path class="d" d="M234.26,228.07c1.72.25,2,1.59,2,3,.09,1.59-.63,2.63-2.28,2.55s-2.21-1.27-2-2.79S232.52,228.12,234.26,228.07Z" transform="translate(-171.95 -119.76)"/><path class="c" d="M234.63,351.66c0,1.13,0,2.29-1.52,2.32-2.05,0-1.76-1.57-1.76-2.88,0-1.11.06-2.34,1.52-2.36C234.9,348.71,234.55,350.36,234.63,351.66Z" transform="translate(-171.95 -119.76)"/><path class="c" d="M236.36,121.7c0,1.22-.26,2.25-1.69,2.21a2.23,2.23,0,0,1-2.46-2,.57.57,0,0,1,0-.13c-.15-1.4.48-2,1.8-2S236.45,119.94,236.36,121.7Z" transform="translate(-171.95 -119.76)"/><path class="c" d="M236,143.06c-.17,1.25.12,2.8-1.69,2.66s-1.4-1.64-1.45-2.79,0-2.28,1.46-2.33C236.17,140.55,235.93,142,236,143.06Z" transform="translate(-171.95 -119.76)"/><path class="c" d="M236,165.19c-.13,1,.21,2.33-1.36,2.45-1.86.14-1.71-1.34-1.69-2.53,0-1-.3-2.36,1.31-2.47C236.1,162.52,235.92,164,236,165.19Z" transform="translate(-171.95 -119.76)"/><path class="c" d="M232.84,342.81c-1.72-.2-1.4-1.57-1.49-2.72-.09-1.31.44-2,1.77-2,1.8.09,1.48,1.47,1.5,2.62S234.2,342.81,232.84,342.81Z" transform="translate(-171.95 -119.76)"/><path class="c" d="M233,132.21c0-1.35.39-2.46,2-2.26s1.35,1.35,1.25,2.44-.08,2.52-1.82,2.45S233.05,133.34,233,132.21Z" transform="translate(-171.95 -119.76)"/><path class="b" d="M234.26,277.06c-1.7.12-2-.7-2-1.77s-.44-2.65,1.36-2.84c1.2-.13,1.64.69,1.6,1.79S235.45,276.76,234.26,277.06Z" transform="translate(-171.95 -119.76)"/><path class="c" d="M214.42,123.05c-1.27.17-2.08-.27-2.06-1.71,0-1.7,1.29-1.4,2.29-1.39s2.28-.19,2.3,1.46C217,123.29,215.58,123,214.42,123.05Z" transform="translate(-171.95 -119.76)"/><path class="b" d="M234.26,239.41c1.36.11.91,1.61.94,2.73,0,.92,0,2.06-1.29,2.1-1.86.07-1.61-1.4-1.64-2.59S232.06,239.34,234.26,239.41Z" transform="translate(-171.95 -119.76)"/><path class="c" d="M202.09,121.28c.38-1.68,1.73-1.29,2.84-1.33s1.89.23,1.85,1.5c-.06,1.82-1.39,1.59-2.57,1.61S202.16,122.7,202.09,121.28Z" transform="translate(-171.95 -119.76)"/><path class="c" d="M186.53,121.55c-.12,1.92-1.51,1.46-2.64,1.48s-2.15-.32-1.93-1.83,1.5-1.21,2.5-1.27S186.66,119.9,186.53,121.55Z" transform="translate(-171.95 -119.76)"/><path class="c" d="M236,154.31c-.14,1.14.11,2.64-1.68,2.48s-1.35-1.65-1.36-2.76-.15-2.3,1.42-2.27S236,153.06,236,154.31Z" transform="translate(-171.95 -119.76)"/><path class="c" d="M235,329.3c0,1.37.14,2.55-1.43,2.6s-1.8-1.1-1.75-2.4,0-2.56,1.68-2.53S234.79,328.54,235,329.3Z" transform="translate(-171.95 -119.76)"/><path class="c" d="M176.53,121.17c0,1.68-1,1.91-2.12,1.91s-2.47.21-2.46-1.71c0-1.35.77-1.55,1.81-1.44S176.26,119.55,176.53,121.17Z" transform="translate(-171.95 -119.76)"/><path class="c" d="M196.63,121.37c0,1.46-1,1.74-2.18,1.7s-2.25.11-2.33-1.48,1.06-1.65,2.15-1.63S196.52,119.7,196.63,121.37Z" transform="translate(-171.95 -119.76)"/><path class="c" d="M226.92,121.55c-.13,1.86-1.54,1.46-2.62,1.52-1.24.07-2.06-.51-1.9-1.88.17-1.58,1.47-1.18,2.43-1.24S227,120,226.92,121.55Z" transform="translate(-171.95 -119.76)"/><path class="b" d="M364,302.37v8.39l-1.17.07c-.87-2.94-.19-6.06-.39-9.08C363.19,301.37,363.48,302.19,364,302.37Z" transform="translate(-171.95 -119.76)"/><path class="b" d="M235.14,252.5c-.09,1.29.14,2.57-1.47,2.52-1.26,0-1.39-1-1.35-2s-.2-2.33,1.29-2.48S235,251.76,235.14,252.5Z" transform="translate(-171.95 -119.76)"/><path class="d" d="M380.26,311.26c1.11.92,2.4.77,3.7.68.76-.05,1.94-1.22,2.17.34.18,1.29-1.12,1.68-2.19,1.69-1.29,0-2.58-.19-3.87-.29A17.93,17.93,0,0,1,380.26,311.26Z" transform="translate(-171.95 -119.76)"/><path class="b" d="M235.16,263.58c-.16,1.14.26,2.51-1.34,2.59s-1.49-1.21-1.49-2.28-.26-2.33,1.33-2.43S235,262.72,235.16,263.58Z" transform="translate(-171.95 -119.76)"/><path class="d" d="M379.2,304.16c0,2,.05,4,.08,6l-1.7,1.07c-.05-2.32-.11-4.64-.16-7Z" transform="translate(-171.95 -119.76)"/><path class="d" d="M274.74,304.4c1.58-.4,3.21-1.34,5,.58-1.8,1.44-4.07.2-5.63,1.43Q274.41,305.4,274.74,304.4Z" transform="translate(-171.95 -119.76)"/><path class="d" d="M339.63,297.68h-5.38a3.76,3.76,0,0,1,5.33-.05Z" transform="translate(-171.95 -119.76)"/><path class="d" d="M334.06,311.9l5.62-.06C337.82,313.5,336,313.27,334.06,311.9Z" transform="translate(-171.95 -119.76)"/><path class="d" d="M340.87,311.22l1.27-1.61C342.43,310.73,341.9,311.18,340.87,311.22Z" transform="translate(-171.95 -119.76)"/><path class="d" d="M274.1,302.7c0,.46.07.93.11,1.39-.27-.13-.71-.21-.77-.4a.7.7,0,0,1,.32-.93A.65.65,0,0,1,274.1,302.7Z" transform="translate(-171.95 -119.76)"/><path class="d" d="M333.79,298a.71.71,0,0,1-.65.36C333.2,297.91,333.39,297.72,333.79,298Z" transform="translate(-171.95 -119.76)"/><path class="d" d="M340.79,298.23l-.72-.33C340.46,297.66,340.68,297.84,340.79,298.23Z" transform="translate(-171.95 -119.76)"/><path class="d" d="M332.93,311.4l.89.37Z" transform="translate(-171.95 -119.76)"/><path class="d" d="M340,311.67l.78-.4C340.69,311.7,340.47,311.9,340,311.67Z" transform="translate(-171.95 -119.76)"/><path class="d" d="M379.89,313.89a.62.62,0,0,1-.1.61c-.07-.17-.13-.33-.19-.5Z" transform="translate(-171.95 -119.76)"/><path class="a" d="M234.4,312.06c-1.77.09-1.88-1.22-1.78-2.46.3-3.62,0-6.6-4.8-5.63-.86.18-1.47-.42-1.48-1.44,0-1.19.64-1.91,1.7-1.73,4.6.77,4.89-2.05,4.58-5.52-.11-1.16.14-2.19,1.57-2.31,1.59-.14,1.71,1,1.6,2.12-.35,3.62-.16,6.63,4.74,5.7,1.13-.21,1.6.76,1.57,1.85a1.27,1.27,0,0,1-1.17,1.36,1.29,1.29,0,0,1-.44,0c-4.93-1-5,2.12-4.72,5.69C235.87,310.71,235.93,311.91,234.4,312.06Z" transform="translate(-171.95 -119.76)"/><path class="a" d="M234.53,180.51c1.93.45,1.32,2.14,1.22,3.3-.28,3.17.49,5,4.06,4.43,1-.16,2.21-.07,2.3,1.52.1,1.78-1.08,2.07-2.34,1.88-3.61-.56-4.26,1.35-4,4.49.09,1.23.94,3.45-1.43,3.46-2.62,0-1.73-2.35-1.65-3.72.2-3.05-.57-4.74-3.92-4.21-1.28.2-2.45-.1-2.43-1.84s1.27-1.7,2.28-1.55c3.56.52,4.35-1.31,4-4.49C232.51,182.43,232.14,180.58,234.53,180.51Z" transform="translate(-171.95 -119.76)"/><path class="a" d="M308.35,304.11c1.74.05,2.32,1.24,2.34,2.7s-.57,2.74-2.27,2.69a2.28,2.28,0,0,1-2.39-2.17,1.94,1.94,0,0,1,0-.48C306.13,305.39,306.69,304.21,308.35,304.11Z" transform="translate(-171.95 -119.76)"/><path class="a" d="M298.86,306.73c0,1.52-.48,2.78-2.19,2.8s-2.1-1.3-2.11-2.8.44-2.47,1.92-2.58C298.2,304,298.76,305.2,298.86,306.73Z" transform="translate(-171.95 -119.76)"/><path class="a" d="M275.92,206.89c1.3-1.5,2.41-.87,3.77-.88C278.7,208,277.58,207.81,275.92,206.89Z" transform="translate(-171.95 -119.76)"/><path class="d" d="M278.46,183.79c.94.11,1.85.39,1.8,1.6a1.42,1.42,0,0,1-1.43,1.4h-.15c-.91,0-1.93-.27-2-1.41S277.45,183.87,278.46,183.79Z" transform="translate(-171.95 -119.76)"/><path class="a" d="M278.43,180.37c.25.16.83.31,1,.67.3.64-.21,1-.77.87s-1.1-.24-1.27-.58C277.06,180.66,277.7,180.53,278.43,180.37Z" transform="translate(-171.95 -119.76)"/><path class="a" d="M384.14,309.56a2.52,2.52,0,0,1-2.34-2.64,2.36,2.36,0,0,1,2-2.71l.31,0c1.71-.12,2.24,1.06,2.26,2.6S386,309.48,384.14,309.56Z" transform="translate(-171.95 -119.76)"/><path class="a" d="M289.19,202.05c1.69.15,2.25,1.15,2.24,2.72s-.4,2.69-2.14,2.66-2.32-1.18-2.33-2.64a2.48,2.48,0,0,1,2.19-2.74Z" transform="translate(-171.95 -119.76)"/><path class="a" d="M298.39,180.52a2.53,2.53,0,0,1,2.39,2.64c.06,1.52-.63,2.68-2.23,2.75s-2.29-.91-2.29-2.56C296.34,181.88,296.6,180.66,298.39,180.52Z" transform="translate(-171.95 -119.76)"/><path class="a" d="M350.76,202l1.05.95c-.29.17-.62.52-.86.47a4.31,4.31,0,0,1-1.12-.7Z" transform="translate(-171.95 -119.76)"/><path class="a" d="M378.33,204.85c-.18,1.53-.84,2.66-2.48,2.55a2.34,2.34,0,0,1-2.31-2.35,2.1,2.1,0,0,1,0-.36,2.27,2.27,0,0,1,2.43-2.56C377.5,202.16,378.26,203.34,378.33,204.85Z" transform="translate(-171.95 -119.76)"/><path class="a" d="M310.42,180.52A2.51,2.51,0,0,1,313,183v.2c.08,1.58-.66,2.7-2.27,2.76s-2.41-1-2.44-2.59A2.52,2.52,0,0,1,310.42,180.52Z" transform="translate(-171.95 -119.76)"/><path class="a" d="M355.13,304.14a2.72,2.72,0,0,1-.14,5.37c-1.68,0-2.35-1.2-2.35-2.68S353.26,304.18,355.13,304.14Z" transform="translate(-171.95 -119.76)"/><path class="b" d="M304.26,200.15c3.11,2.21,1,5.35,1.32,8.06a1.18,1.18,0,0,1-.87.47c-.81-.2-.77-.84-.72-1.59.15-2.3.18-4.6.25-6.91Z" transform="translate(-171.95 -119.76)"/></svg>