<svg xmlns="http://www.w3.org/2000/svg" viewBox="0 0 308.9 276.26"><defs><style>.a{fill:#fcfdfd;}.b{fill:#1f61ac;}.c{fill:#7fccee;}.d{fill:#316aaa;}.e{fill:#4575ac;}</style></defs><path class="a" d="M253.47,305.35h0a8,8,0,0,0-4.89-3.12h0a35.67,35.67,0,0,0-16.66-6.52.7.7,0,0,0-.71-.11c-4.85-.61-7.67-3.48-8.78-8.27V280.9c1.9-1.54,3.45-.31,5.07.63,8.35,4.82,16.83,5.54,25.17.21,2.69-1.72,4.57-1.52,7.18.11,7.61,4.76,15.59,5.16,23.33.39,3.37-2.08,6.09-2.35,9.43-.1,8.08,5.45,16.38,4.67,24.38-.14,3.14-1.89,5.68-2,8.77-.07,8.48,5.37,17,5.2,25.42-.33,2.46-1.62,4.76-1.87,7.3.07a14,14,0,0,0,5,2.34,3.52,3.52,0,0,0,4.2-2.67,1.16,1.16,0,0,0,0-.18c.48-1.94-1.71-1.45-2.8-2a61.46,61.46,0,0,1-6.79-3.4c-2.29-1.43-4.21-1.61-6.53.07-8.81,6.36-17.82,6.28-26.62.09-3.38-2.38-6-.85-8.68.86-7.69,4.87-15.47,5.62-23,0-3.86-2.85-7-2.26-10.75.07-7.62,4.7-15.36,4.51-22.68-.86-2.52-1.85-4.54-1.92-7.13-.07-8.21,5.84-16.53,5.44-24.89.09a4.91,4.91,0,0,1-2.47-4.29c2.78-6.37,7.1-11.8,10.45-17.82.84-1.52,2.1-1.85,3.55-2.21a152.68,152.68,0,0,0,19.67-6.54c3.55-1.41,6.3-4,11.46-.86a26.21,26.21,0,0,0,18.67,3.5,90.7,90.7,0,0,0,9.05-2.42l7-4.65c.71-3,4.25-2,5.81-4.51.9-1.46,3.12-2.32,3.35-4.71,0-.24.9-.47,1.41-.56,3.46-.61,4.81-4.22,7.91-5.72,2.85-1.38,2.83-5.93,6.13-8.47,2.33-1.79,5.53-6.82,2.43-12.06-.88-1.49-2.25-3.46-2.53-5-.69-3.83-2.69-4.94-6-5.26-2.09-.21-4.71-2.07-4.17-3.5.82-2.18.05-2.59-1.27-3.33-.6-.34-1.46-.87-1.17-1.42,1.68-3.15-.14-6.38.36-9.49.72-4.49-3.66-12.54-8-13.5-1.86-.42-4-1.33-4.73-2.27-4.79-6.2-12-5.77-18.28-7.07-6.05-1.24-12.89-5.91-14.48-11.75-.41-1.52-.17-3.76-1.32-4.66-2.94-2.26-3.46-5.77-5.1-8.69-.51-.92-.87-2-2-2.45-7.4-3-14.32-7.35-22.73-7.39-4.78,0-10.34,3.42-11.41,8.08-1,4.49-2.84,5.31-7.69,5.06-2-.1-3.76-.94-5.74-1.08s-5.85-.41-6.32-3.27c-.73-4.34-4.65-6.71-5.41-11a5.47,5.47,0,0,0-3.23-3.71c-6.21-2.22-17.81,1.66-20.91,7.73-1.92,3.79-5.17,5.28-8.39,6.66A119.63,119.63,0,0,0,156.07,135c-2.07,1.26-4.19,3.57-3.57,6.38.5,2.25.22,4.57,1,6.75,1.74,4.8-.91,7.61-4.29,10.29-4.56,3.62-9.06,7.36-13.38,11.28-4,3.62-3.68,7.93.35,11.26a7.77,7.77,0,0,1,2.74,4.41c.62,2.58,1.44,5.1,4,6.61,1.24.71,2.4,2.67.87,3.67-2.9,1.9-4.21,5.16-6.62,7.26-7.56,6.58-7.66,14.53-5.08,23.31.88,3,3.84,3.76,5.41,5.71,3.36,4.16,8.19,5.44,12.39,7.61,3.42,1.76,7.92,1.24,11.54,3.28,1.42.79,2.66-1.48,4.08-.17,4,3.67,9.63,3.49,13.82,6.49,2.12,1.52,3.73-1.46,5.57-.11,3,2.2,6.28,1.91,9.65,1.42,3-.42,8-4,8-6.08-.14-3.88,1.8-3.22,4-2.18,4.59,2.16,9.14,4.38,13.74,6.51,4.22,1.95,4.35,2.14,1,5.27a70.6,70.6,0,0,0-17.06,23.86c-1.38,1.84-3,1.8-4.87.76a39.4,39.4,0,0,1-4.91-2.66c-2.37-1.85-4.35-1.63-6.88-.14-6,3.52-12.15,6.63-19.47,3.63a50.72,50.72,0,0,1-7.83-3.93c-2-1.22-3.49-1.42-5.43,0-8.68,6.28-17.5,6.23-26.26.2-2-1.4-3.67-1.65-5.74-.09-8.56,6.45-17.3,5.88-25.91.18-2.38-1.58-4.21-1.57-6.47.06-9.12,6.58-18.26,6-27.33-.17-1.19-.81-2.65-2.27-3.65-.38a3.41,3.41,0,0,0,1.1,4.66c9.48,6.19,19.27,8.49,29.39,1.84,2.84-1.86,5-1.59,7.61,0,8.28,5.07,16.57,4.85,24.78-.24,2.06-1.27,3.92-1.61,6.23-.13,8.54,5.47,17.24,5.39,25.78,0a4.89,4.89,0,0,1,5.87-.18c9.16,5.81,18.39,6.26,27.61.09a4.89,4.89,0,0,1,5.91-.07,23.11,23.11,0,0,0,5,2.55,4.18,4.18,0,0,1,3.07,4.54c-.21,4.07-1.86,6.77-6.15,7.41a28.52,28.52,0,0,0-5.15,1.78c-4.51.9-8.47,3.17-12.3,5.57-7.29,4.58-14,9.89-18.1,17.86h0c-2.76,2.51-4.09,6-5.38,9.33a5.59,5.59,0,0,1-4.83,4c-8.29,1.59-12.89,7.43-15.59,15.2-.27.78-.59,1.75.27,2.18,1.26.65,1.53-.62,1.88-1.43a26,26,0,0,1,9.35-11.3c.63-.1,1.27-.15,1.89-.3,4.12-1,4.33-.79,3.56,3.58-.28,1.6-.49,3.21-.72,4.82-.25,1.76.29,2.85,2.22,3,1.7.15,2.71-.22,3-2.2a62.4,62.4,0,0,1,1.84-8.32c5.21-16.89,16-28,32.75-32.73.79.09,1.53.25,1.83,1.15a17.86,17.86,0,0,1-1.75,1.62c-13.53,9.51-21,22.87-23.53,39.38-.2,1.28-1.11,3.18,1.23,3.58s2.1-1.48,2.39-2.9a45.76,45.76,0,0,1,3.25-10.86c.91-1.84.85-5,3.14-5.13,1.86-.1,2.17,3,3.51,4.44a34.33,34.33,0,0,1,4,13.55c.07.77,0,1.8,1.2,1.61.86-.14.76-1,.76-1.66,0-5.18-.14-10.36-3.24-14.85l-.18-.17c-.36-1.33-.43-2.85-2.08-3.34l-1.59-2.45-.15-2.46a83.83,83.83,0,0,1,11.22-11.54c2.6-1.37,5.28-2.61,7.48-4.65a.45.45,0,0,0,.52-.19c5.26-.51.57,2.93,1.56,4.12h0c-1.5,1.48-2,3.49-2.63,5.4a100.6,100.6,0,0,0-5.22,28.76c0,1.32-.6,2.91,1.41,3.17,2.19.28,2.19-1.51,2.35-3a98,98,0,0,1,2.73-14.81c1.94-7.38,1.93-7.38,7.68-3v-.05a10.58,10.58,0,0,0,3.22,4.95h0c1.35,4.21,2.94,8.35,3.44,12.8.1.82.2,1.76,1.25,1.65.73-.07.91-.88.92-1.58a28.37,28.37,0,0,0-4-16.08l-.11-.11c-1.32-4.7-3.66-8.65-7.89-11.2l-.08-.27.08-.82c2.64-4.88,5.3-9.74,9.09-13.84,1.43-1.55,2.55-1.71,3.75.18,1.74,2.73,3.67,5.35,5.25,8.17,6.22,11.15,9.51,23.31,11.44,35.91.19,1.2-.23,3.14,1.85,2.91,1.74-.19,1.29-1.83,1.21-3-1.06-15.92-4.12-31.29-11.88-45.38-.45-.83-1.62-1.51-.94-3,5.67,2.54,9.61,7.16,13.89,11.36a8,8,0,0,0,3.07,4.18h0a41,41,0,0,0,4.64,8.56.33.33,0,0,0,.21.4h0l4.81,15.47h0c.16,1.48.31,3,.48,4.43s.11,2.82,2.11,2.72c2.27-.13,2-1.75,1.84-3.24-.39-3.46-.85-6.91-1.29-10.4,1.92-.18,3,.86,4.15,1.76,3.34,2.65,5.39,6.26,7.09,10.15.38.87.45,2.53,2,1.92,1.26-.52.8-1.83.48-2.87-2.07-6.76-5.77-12.27-12.12-15.35-2.55-1.24-3.71-3-4.59-5.6-1.62-4.82-3-9.82-6.58-13.67h0c.08-2.24-2.61-3.31-2.41-5.95,5.91,1.09,10.3,4.9,15.27,7.43,9.52,8,16.17,18,18.47,30.57.43,2.35,1.14,4.94,3.58,4.36s.75-3.2.42-4.8c-1-4.54-2.19-9-3.44-14a31.24,31.24,0,0,1,12.19,6.82c3.45,3.93,6.94,7.83,9,12.79.31.75.66,1.69,1.62,1.41,1.13-.34.59-1.38.35-2.05-3.1-8.57-7.56-16.05-15.81-20.44h.06c-1.7-2.29-4.3-3.19-6.75-3.9a11.22,11.22,0,0,1-6.86-5.55c-3.24-5.44-6.93-10.52-12.87-13.25h0a2.65,2.65,0,0,0-2.4-1.76ZM178.71,92.08V98c0,1.37-.22,2.94,1.81,2.87,1.88-.07,1.43-1.64,1.44-2.77,0-5,.08-10.07,0-15.11,0-1.31.73-3.16-1.64-3.44s-2.92,1.11-3.49,3c-.67,2.18-.58,4.72-2.7,6.78-.79-2.88-1.56-5.33-2.13-7.83-.41-1.78-1.56-1.93-3-1.93s-2,.85-2,2.32V98.64c0,1.23.25,2.22,1.65,2.27s1.73-.9,1.8-2.13c.12-1.88-.32-3.86.76-6.7l3.13,9.3C176.51,98.47,176,95.23,178.71,92.08Zm22.56.56,1-.23c.81,2.24,1.59,4.49,2.46,6.71a2.39,2.39,0,0,0,2.78,1.76c1.26-.21,1.31-1.17,1.31-2.14V81.59c0-1.32-.5-2-1.85-2s-1.72.89-1.78,2.14c-.09,1.73.33,3.57-.58,5.61-1.8-2.14-2-4.39-2.91-6.32a2.22,2.22,0,0,0-2.56-1.4c-1.21.13-1.42,1-1.42,2.06V98.83c0,1.22.37,2.21,1.77,2.16s1.78-1,1.79-2.24C201.28,96.68,201.27,94.66,201.27,92.64Zm28.57-.25c.81,2.33,1.36,3.8,1.82,5.3.52,1.65.74,3.92,3.15,3.15,2.57-.82.67-2.73.29-4-.8-2.66-1.3-4.93.42-7.62,1.39-2.18,1-5-.44-7.36-1.93-3.13-5.07-2.29-7.9-2.32-1.38,0-1.66,1.08-1.66,2.27V98.88c0,1.28.51,2.1,1.87,2,1.16-.06,1.48-.88,1.59-1.93.19-1.81-.36-3.73.86-6.56Zm-7.63,2.48c0-.9,0-1.32,0-1.72-.18-1.35.66-3.26-1.47-3.65-1.24-.23-2.83-.73-3.73.52-1.24,1.74.4,2.42,1.42,3.47.84.88.57,2.31,0,3.45a1.34,1.34,0,0,1-1.67.75c-1.16-.4-1.46-1.5-1.62-2.57a26.91,26.91,0,0,1,0-9.72c.45-2.14,1.28-3.86,3.61-1.52.77.77,1.65,1,2.45.24,1.06-1,.24-2-.3-2.92a4.22,4.22,0,0,0-4.09-2A5.24,5.24,0,0,0,212.13,83a23.65,23.65,0,0,0-.6,12.46c.84,4.21,3.12,6.23,6.38,5.79,4-.55,4.7-3.38,4.3-6.37Zm16.21-4.76a18.85,18.85,0,0,0,1.29,7.54c.92,2.14,2.36,3.62,4.77,3.65a5,5,0,0,0,5.09-3.75,21.38,21.38,0,0,0-.08-14.71,5.08,5.08,0,0,0-4.75-3.68c-2.55-.07-4.18,1.53-5.13,3.83A19,19,0,0,0,238.42,90.11Zm19.73,2.59h-.69c-.61-3.57-1.26-7.13-1.79-10.71-.24-1.58-.79-2.65-2.51-2.38-1.87.3-1.28,1.78-1.07,2.89,1,5.33,2.19,10.64,3.23,16,.29,1.49.74,2.51,2.5,2.5s2.21-1,2.5-2.51c1-5.34,2.16-10.66,3.19-16,.21-1.11.83-2.61-1-2.93s-2.28.76-2.52,2.36C259.44,85.53,258.76,89.11,258.15,92.7Zm-62.72,6.11c-1.18-5.82-2.37-11.72-3.51-17.58-.33-1.62-1.5-1.69-2.74-1.69s-1.79.8-2,2c-1.1,5.61-2.28,11.19-3.38,16.79-.21,1-.55,2.29,1.06,2.54,1.17.18,2.18-.15,2.36-1.53s.5-2.66,2.29-2.71,2.21,1.12,2.45,2.57a1.86,1.86,0,0,0,2,1.75,1.54,1.54,0,0,0,.3,0C195.48,100.78,195.55,99.87,195.43,98.81Zm70.08-8.72h0v8.14c-.05,1.84.58,2.83,2.49,2.75,1.45-.06,2.91,0,4.36,0,1.16,0,2.19-.25,2.1-1.76A1.56,1.56,0,0,0,273,97.56a1.7,1.7,0,0,0-.39,0c-2.16.2-3.47-.26-3.48-3,0-2.57,1.2-2.93,3.19-2.81a1.63,1.63,0,0,0,1.91-1.29,1.43,1.43,0,0,0,0-.29,1.53,1.53,0,0,0-1.21-1.79,1.36,1.36,0,0,0-.45,0c-2.06,0-3.54-.2-3.47-3s1.74-2.51,3.47-2.53c1,0,1.87-.25,1.82-1.57a1.71,1.71,0,0,0-1.46-1.7c-4.85-1.64-7.46.17-7.46,5.22ZM280,101.34c4,0,6-2,6.33-5.44s-1.68-5.81-4.1-7.88c-1.2-1-2.66-2.12-1.92-4.06.63-1.66,2.1-1.34,3.42-1.11a1.43,1.43,0,0,0,1.8-.92.94.94,0,0,0,0-.16c.32-1.13-.28-1.73-1.28-2.14a5.43,5.43,0,0,0-6,.86,6,6,0,0,0-1.69,6.31c.61,2.43,2.44,3.82,4.17,5.29,1.43,1.22,2.46,2.62,1.51,4.56s-2.32,1.37-3.75.68a1.44,1.44,0,0,0-2,.44,1.41,1.41,0,0,0-.21.56,1.81,1.81,0,0,0,1.19,2.27h0A16.79,16.79,0,0,0,280,101.34ZM271.92,315c1,0,2.35,0,2.35-1.67S273,312,271.92,312s-2.55-.12-2.51,1.62C269.48,315,270.64,315.09,271.92,315Zm12.37-1.29c.08-1.29-.56-1.86-1.66-1.79s-2.57-.6-2.82,1.29a1.45,1.45,0,0,0,1.05,1.75,1.62,1.62,0,0,0,.58,0c1.08,0,2.48.45,2.82-1.27Zm7.48-1.81c-.9.09-2.19-.22-2.29,1.38s.95,1.76,2.1,1.73,2.26.08,2.39-1.44-1.05-1.62-2.23-1.62Z" transform="translate(-58.88 -78.99)"/><path class="b" d="M231.18,295.6a.7.7,0,0,1,.71.11c.67,2.82,3.39,1.75,4.9,2.17,4.07,1.14,7.33,4.49,11.78,4.34h0c1.39,1.44,2.44,3.43,4.89,3.12h0a2.18,2.18,0,0,0,2.29,1.76h0c.23,1.67,1.68,2.35,2.66,3.38,1.78,1.88,4.18,3.35,5.41,5.54a26.84,26.84,0,0,0,18.41,13.78h-.06c1.53,2.36,3.78,4,5.76,5.85,1.57,1.49,1.63,2.49-.9,2.44a31.2,31.2,0,0,0-12.11-6.83c1.25,5,2.49,9.47,3.44,14,.33,1.6,2,4.23-.42,4.8s-3.15-2-3.58-4.36c-2.3-12.62-9-22.52-18.47-30.57-.12-1,.25-2.33-.93-2.88q-7-3.25-14-6.36a2.38,2.38,0,0,0-2.27,3.89c1.46,1.29,2.35,3.28,4.39,3.88h0c.17,4.49,3,9.61,12.34,22.16-3.7,0-5,1.83-3.54,5.45a11.37,11.37,0,0,1,.13,8.24c-1.66-1.9-.07-4.67-2.46-5.7h0a23.67,23.67,0,0,0-4.81-15.47.33.33,0,0,1-.23-.39v0a11.41,11.41,0,0,0-4.64-8.55h0c.18-2.32-1.25-3.4-3.07-4.18-4.28-4.2-8.22-8.82-13.89-11.36-.68,1.44.49,2.12.94,3,7.76,14.09,10.82,29.46,11.88,45.38.08,1.12.53,2.76-1.21,3-2.08.23-1.66-1.71-1.85-2.91-1.93-12.6-5.22-24.76-11.44-35.91-1.58-2.82-3.51-5.44-5.25-8.17-1.2-1.89-2.32-1.73-3.75-.18-3.79,4.1-6.45,9-9.09,13.84-.11.07-.31.16-.3.2a4.57,4.57,0,0,0,.22.62l.08.27,7.89,11.2.11.11c-.12,1.3.49,3-1.62,3.21h0c.19-2.52-1.49-3.75-3.22-4.95v.05c.06-2.68-1.41-3.89-3.82-4.2a3.17,3.17,0,0,0-3.89,2.63c-1.12,6-3.84,11.68-3.43,18,0,.7.22,1.76-1.25,1.69-1.14-7.19.83-14,2.27-20.91,1-4.68,3.8-8.78,3.8-13.72h0a2.72,2.72,0,0,0,1.75-2.49c.14-1,2.29-2,.54-3-1.18-.62-3.21-1-3.85,1.34a.45.45,0,0,1-.52.19c-3.86-.76-5.74,1.83-7.48,4.65a83.83,83.83,0,0,0-11.22,11.54c-2.07,1-.55,1.68.15,2.46l1.59,2.45c0,1.56,1.44,2.2,2.08,3.34l.18.17c-.57,1.44,1.46,2.78,0,4.74-.88-1.44-.65-3.69-2.81-3.39-1.34-1.42-1.65-4.54-3.51-4.44-2.29.12-2.23,3.29-3.14,5.13a45.76,45.76,0,0,0-3.25,10.86c-.29,1.42-.19,3.27-2.39,2.9s-1.43-2.3-1.23-3.58c2.51-16.47,10-29.83,23.57-39.34a17.86,17.86,0,0,0,1.75-1.62c2.45.15,3.81-1.79,6.64-3.09-3.83-.48-6.26.25-8.47,1.94-16.78,4.73-27.54,15.84-32.75,32.73a62.4,62.4,0,0,0-1.84,8.32c-.32,2-1.33,2.35-3,2.2-1.93-.17-2.47-1.26-2.22-3s.44-3.22.72-4.82c.77-4.37.56-4.57-3.56-3.58-.62.15-1.26.2-1.89.3-.84-4.58,3.19-3,5-3.93,1.16-.61,3.18,0,3.76-1.59,1.58-4.31,4.53-8,5.5-12.55h0a4.61,4.61,0,0,0,2.13-1.59c4.92-6.74,11.4-11.63,18.27-16.09,3.25-2.1,7.22-2.83,10-5.75a28.52,28.52,0,0,1,5.15-1.78c4.29-.64,5.94-3.34,6.15-7.41.87-3.46.93-7.11,2.33-10.45A70.68,70.68,0,0,1,221.19,254c3.4-3.13,3.27-3.32-1-5.27-4.6-2.13-9.15-4.35-13.74-6.51-2.21-1-4.15-1.7-4,2.18.08,2.1-5,5.66-8,6.08-3.37.49-6.66.78-9.65-1.42-1.84-1.35-3.45,1.63-5.57.11-4.19-3-9.87-2.82-13.82-6.49-1.42-1.31-2.66,1-4.08.17-3.62-2-8.12-1.52-11.54-3.28-4.2-2.17-9-3.45-12.39-7.61-1.48-2-4.48-2.68-5.33-5.69-2.58-8.78-2.48-16.73,5.08-23.31,2.41-2.1,3.72-5.36,6.62-7.26,1.53-1,.37-3-.87-3.67-2.59-1.51-3.41-4-4-6.61a7.75,7.75,0,0,0-2.67-4.32c-4-3.33-4.35-7.64-.35-11.26,4.32-3.92,8.82-7.66,13.38-11.28,3.38-2.68,6-5.49,4.29-10.29-.79-2.18-.51-4.5-1-6.75-.62-2.81,1.5-5.12,3.57-6.38a119.63,119.63,0,0,1,15.68-7.66c3.22-1.38,6.47-2.87,8.39-6.66,3.1-6.07,14.7-10,20.91-7.73a5.47,5.47,0,0,1,3.23,3.71c.76,4.26,4.68,6.63,5.41,11,.47,2.86,4.24,3.12,6.32,3.27s3.75,1,5.74,1.08c4.85.25,6.66-.57,7.69-5.06,1-4.69,6.59-8.09,11.37-8.09,8.41,0,15.33,4.39,22.73,7.39,1.12.45,1.48,1.53,2,2.45,1.64,2.92,2.16,6.43,5.1,8.69,1.15.9.91,3.14,1.32,4.66,1.59,5.84,8.43,10.51,14.48,11.75,6.3,1.3,13.49.87,18.28,7.07.73.94,2.87,1.85,4.73,2.27,4.31,1,8.69,9,8,13.5-.5,3.11,1.32,6.34-.36,9.49-.29.55.57,1.08,1.17,1.42,1.32.74,2.09,1.15,1.27,3.33-.54,1.43,2.08,3.29,4.17,3.5,3.3.32,5.3,1.43,6,5.26.28,1.57,1.65,3.54,2.53,5,3.1,5.24-.1,10.27-2.43,12.06-3.3,2.54-3.28,7.09-6.13,8.47-3.1,1.5-4.45,5.11-7.91,5.72-.51.09-1.39.32-1.41.56-.23,2.39-2.45,3.25-3.35,4.71-1.56,2.52-5.1,1.54-5.81,4.51l-7,4.65a90.7,90.7,0,0,1-9.05,2.42,26.21,26.21,0,0,1-18.67-3.5c-5.16-3.11-7.91-.55-11.46.86a152.68,152.68,0,0,1-19.67,6.54c-1.45.36-2.71.69-3.55,2.21-3.35,6-7.67,11.45-10.45,17.82-1.88,2.72-2.18,6-2.92,9.09v6.43C222.26,294.81,223.39,295.87,231.18,295.6Zm21.31-71.19.89-.79h0c3.59.24,4.13-4.3,7.23-4.84l.05,1.67-7.16,8.17c-4.23,1.21-6.39,4.8-8.84,8.06-2.11,1.62-3,3.93-3.87,6.42-1,2.82.3,2.75,2.2,2.31,5.82-1.36,11.47-3.28,17.17-5.07,3.42-1.07,4-3.13,3.48-6.2-.35-2,2.62-5.21,4.51-5.56a10.43,10.43,0,0,0,5.1-2.31c1.05-1-.93-4.23,2.79-3.92,1.35.11,2.24-3.06,4.55-1.62.21.13,1.09-.35,1.25-.73,2.58-6.24,5.55-12.41,3.75-19.53-.58-2.28-3-2.8-4.29-4.52-.34-.47-.87,1.07-1.4,1.6-2.77.58-1.56,2.72-1.62,4.36a.35.35,0,0,1-.07.48l0,0c-3.06,2.4-1.62,5.86-1.45,8.68.22,3.68-1.9,5.72-4.1,7.2a10.24,10.24,0,0,1-6.29,2l-.06-.13c-1.35-2.65-3.54-1.9-5.65-1.45.05-2.58-.85-4.58-3.26-5.67-2.63-1-3.33-3.07-3.16-5.69-.11-1.3.66-3-1.42-3.42l-.06-.06-.18-1.63h0c2.14,0,1.45-1.75,1.75-3,1.23-5-1.55-9.57-1.42-14.55.07-2.25-2.67-5.5-5.73-5-2.66.47-5.4.55-8,1.31h0c-2.41-4-3.68-.47-4.94.66-2.81-3.94-6.84-6.19-10.57-8.79-.31-.21-1,.14-1.5.23-1.81,1.4-4.11.51-6,1.38-1.76-.84-2.58-1.06-2.12,1.67.72,4.28-.51,8.72.49,13,.35,1.53-2.65,2.49-.54,4.16l-.34,1.59c-.25,2.21.72,3.24,2.84,2.24a12,12,0,0,1,11.4.23l.91.93c.15.89,0,2,1.27,2.12a1.7,1.7,0,0,0,1.82-1.58v-.13c.13-1.28.53-2.85-1.58-2.89h0c.11-1.18-.42-1.71-1.55-1.64h-.08c.61-2.26,3.76-2,4.25-4.71.11-.61,1.67.45,1.3,1.5-1.47,4.15,1.6,7.45,1.83,11.26.16,2.26.32,5.67,2.1,6,2.38.38,3.34-2.87,4.44-5,.06-.12.19-.19.29-.28,1.72.12,1.76-2.44,3.49-2.3l.14,2.58v-.05c-1.79,1.15-3.37,2.44-3.32,4.89l-.3.72c-1.62,1-3.3,1.9-2.71,4.33h0c-2.38.81-2.09,1.89-.3,3.12h0c-.77,5,1.44,9.51,1.81,14.34.18,2.33,1.78,2.48,3,.2h0l.9-.72h0c1.17,0,2.26,0,2.38-1.62l3.66-3.46a.91.91,0,0,0,1-.8Zm-18.84,4.16a5.61,5.61,0,0,0,0-.82c-.22-1.68.67-3.91-1.15-4.86-2-1-2,1.46-2.88,2.38-.21.22-.75,0-1.11.16-3.91,1.29-7.82,2.65-12,2.62a24.38,24.38,0,0,1-12.37-3.63c-3.9-2.43-6.22-7.54-9.22-11.43,2.45-2.35-2.14-2.74-1.25-4.85.66-1.6-.16-3.68-1.53-4A4.46,4.46,0,0,0,187,206.3c-.91,1.63-.38,7.77,1.14,9,2.24,1.87,4.16,4,7,5.32,5.21,2.36,7.85,7.54,8.53,12.81.3,2.26.77,2.8,2.24,3.42,6.51,2.73,13.07,5.32,19.53,8.17,2.43,1.07,3.65.29,4.73-1.87A35.6,35.6,0,0,0,233.65,228.57Z" transform="translate(-58.88 -78.99)"/><path class="c" d="M204.13,277.87c-1.4,3.34-1.46,7-2.33,10.45a4.18,4.18,0,0,0-3.07-4.54,23.11,23.11,0,0,1-5-2.55,4.89,4.89,0,0,0-5.91.07c-9.22,6.17-18.45,5.72-27.61-.09-2.08-1.31-3.82-1.12-5.87.18-8.54,5.44-17.24,5.52-25.78,0-2.31-1.48-4.17-1.14-6.23.13-8.21,5.09-16.5,5.31-24.78.24-2.62-1.61-4.77-1.88-7.61,0-10.12,6.65-19.91,4.35-29.39-1.84a3.4,3.4,0,0,1-1.2-4.64c1-1.89,2.46-.43,3.65.38,9.07,6.17,18.21,6.75,27.33.17,2.26-1.63,4.09-1.64,6.47-.06,8.61,5.7,17.35,6.27,25.91-.18,2.07-1.56,3.72-1.31,5.74.09,8.76,6,17.58,6.08,26.26-.2,1.94-1.4,3.47-1.2,5.43,0a50.72,50.72,0,0,0,7.83,3.93c7.32,3,13.46-.11,19.47-3.63,2.53-1.49,4.51-1.71,6.88.14a39.4,39.4,0,0,0,4.91,2.66C201.1,279.67,202.75,279.71,204.13,277.87Z" transform="translate(-58.88 -78.99)"/><path class="c" d="M222.39,280.9c.74-3.11,1-6.37,2.92-9.09a4.91,4.91,0,0,0,2.47,4.29c8.36,5.35,16.68,5.75,24.89-.09,2.59-1.85,4.61-1.78,7.13.07,7.32,5.37,15.06,5.56,22.68.86,3.78-2.33,6.89-2.92,10.75-.07,7.55,5.57,15.33,4.82,23,0,2.7-1.71,5.3-3.24,8.68-.86,8.8,6.19,17.81,6.27,26.62-.09,2.32-1.68,4.24-1.5,6.53-.07a61.46,61.46,0,0,0,6.79,3.4c1.09.51,3.28,0,2.8,2a3.52,3.52,0,0,1-4.06,2.89l-.18,0a14,14,0,0,1-5-2.34c-2.54-1.94-4.84-1.69-7.3-.07-8.4,5.53-16.94,5.7-25.42.33-3.09-2-5.63-1.82-8.77.07-8,4.81-16.3,5.59-24.38.14-3.34-2.25-6.06-2-9.43.1-7.74,4.77-15.72,4.37-23.33-.39-2.61-1.63-4.49-1.83-7.18-.11-8.34,5.33-16.82,4.61-25.17-.21C225.84,280.59,224.29,279.36,222.39,280.9Z" transform="translate(-58.88 -78.99)"/><path class="d" d="M178.71,92.08c-2.71,3.15-2.2,6.39-4.37,9.28l-3.13-9.3c-1.08,2.84-.64,4.82-.76,6.7-.07,1.23-.41,2.19-1.8,2.13s-1.66-1-1.65-2.27V81.88c0-1.47.44-2.33,2-2.32s2.58.15,3,1.93c.57,2.5,1.34,5,2.13,7.83,2.12-2.06,2-4.6,2.7-6.78.57-1.87,1.23-3.25,3.49-3s1.6,2.15,1.6,3.45c.07,5,0,10.08,0,15.11,0,1.13.44,2.7-1.44,2.77s-1.81-1.5-1.81-2.87C178.71,96.39,178.71,94.78,178.71,92.08Z" transform="translate(-58.88 -78.99)"/><path class="e" d="M201.27,92.64V98.7c0,1.23-.45,2.18-1.79,2.24s-1.77-.94-1.77-2.16V81.63c0-1,.21-1.93,1.42-2.06A2.2,2.2,0,0,1,201.7,81c.89,1.93,1.11,4.18,2.91,6.32.91-2,.49-3.88.58-5.61.06-1.25.37-2.14,1.78-2.14s1.86.73,1.85,2V98.76c0,1,0,1.93-1.31,2.14a2.39,2.39,0,0,1-2.78-1.76c-.87-2.22-1.65-4.47-2.46-6.71Z" transform="translate(-58.88 -78.99)"/><path class="e" d="M229.84,92.39c-1.22,2.83-.67,4.75-.85,6.61-.11,1-.43,1.87-1.59,1.93-1.36.08-1.87-.74-1.87-2V81.86c0-1.19.28-2.28,1.66-2.27,2.83,0,6-.81,7.9,2.32,1.45,2.34,1.83,5.18.44,7.36-1.72,2.69-1.22,5-.42,7.62.38,1.24,2.28,3.15-.29,4-2.41.77-2.63-1.5-3.15-3.15S230.65,94.72,229.84,92.39Zm-1-6.37c.37,1.2-.81,3.37,1.6,3.35,1.88,0,2.16-1.76,2.12-3.3s-.32-3.22-2.24-3.2c-2.13,0-1.21,1.93-1.47,3.12Z" transform="translate(-58.88 -78.99)"/><path class="e" d="M222.21,94.87c.4,3-.27,5.82-4.3,6.37-3.26.44-5.54-1.58-6.38-5.79a23.65,23.65,0,0,1,.6-12.46,5.23,5.23,0,0,1,4.71-3.8,4.22,4.22,0,0,1,4.09,2c.54.87,1.36,1.91.3,2.92-.8.76-1.68.53-2.45-.24-2.33-2.34-3.16-.62-3.61,1.52a26.91,26.91,0,0,0,0,9.72c.16,1.07.46,2.17,1.62,2.57a1.34,1.34,0,0,0,1.67-.75c.57-1.14.84-2.57,0-3.45-1-1-2.66-1.73-1.42-3.47.9-1.25,2.49-.75,3.73-.52,2.13.39,1.29,2.3,1.47,3.65C222.26,93.55,222.21,94,222.21,94.87Z" transform="translate(-58.88 -78.99)"/><path class="e" d="M238.43,90.11A18.77,18.77,0,0,1,239.61,83c.95-2.25,2.58-3.85,5.13-3.78a5.08,5.08,0,0,1,4.75,3.68,21.38,21.38,0,0,1,.08,14.71,5,5,0,0,1-5.09,3.75c-2.41,0-3.85-1.51-4.77-3.65A18.57,18.57,0,0,1,238.43,90.11Zm3.59.31c.21,1.7.34,3.6.7,5.44a2,2,0,0,0,1.83,1.86c1.16.06,1.61-.85,1.87-1.77a21.82,21.82,0,0,0,.13-11.23c-.25-1-.72-2.2-2.06-2.07s-1.68,1.28-1.87,2.34c-.3,1.72-.39,3.48-.6,5.43Z" transform="translate(-58.88 -78.99)"/><path class="e" d="M258.15,92.7c.61-3.59,1.29-7.17,1.82-10.78.24-1.6.84-2.64,2.52-2.36,1.85.32,1.23,1.82,1,2.93-1,5.33-2.16,10.65-3.19,16-.29,1.5-.77,2.49-2.5,2.51s-2.21-1-2.5-2.5c-1-5.34-2.19-10.65-3.23-16-.21-1.11-.8-2.59,1.07-2.89s2.27.8,2.51,2.38c.53,3.58,1.18,7.14,1.79,10.71Z" transform="translate(-58.88 -78.99)"/><path class="e" d="M249.49,343.85c2.39,1,.8,3.8,2.46,5.7a11.37,11.37,0,0,0-.13-8.24c-1.46-3.62-.16-5.46,3.54-5.45C246,323.31,243.19,318.19,243,313.7c3.58,3.85,5,8.85,6.58,13.67.88,2.59,2,4.36,4.59,5.6,6.35,3.08,10,8.59,12.12,15.35.32,1,.78,2.35-.48,2.87-1.51.61-1.58-1.05-2-1.92-1.7-3.89-3.75-7.5-7.09-10.15-1.14-.9-2.23-1.94-4.15-1.76.44,3.49.9,6.94,1.29,10.4.16,1.49.43,3.11-1.84,3.24-2,.1-2-1.37-2.11-2.72S249.65,345.33,249.49,343.85Z" transform="translate(-58.88 -78.99)"/><path class="e" d="M195.43,98.81c.12,1.06,0,2-1.24,2.12A1.87,1.87,0,0,1,192,99.51a2.89,2.89,0,0,1,0-.29c-.24-1.45-.66-2.62-2.45-2.57s-2.09,1.25-2.29,2.71-1.19,1.71-2.36,1.53c-1.61-.25-1.27-1.5-1.06-2.54,1.1-5.6,2.28-11.18,3.38-16.79.24-1.22.72-2,2-2s2.41.07,2.74,1.69C193.06,87.09,194.25,93,195.43,98.81ZM189.15,85c-.41,2.52-.8,4.61-1.07,6.72-.14,1.07.28,1.87,1.5,1.89s1.85-.7,1.55-1.78C190.55,89.67,191,87.21,189.15,85Z" transform="translate(-58.88 -78.99)"/><path class="e" d="M265.51,90.09V84.8c0-5,2.61-6.86,7.46-5.22a1.71,1.71,0,0,1,1.43,1.67c.05,1.32-.81,1.56-1.82,1.57-1.73,0-3.4-.28-3.47,2.53s1.41,3.05,3.47,3a1.53,1.53,0,0,1,1.68,1.36,1.7,1.7,0,0,1,0,.45,1.63,1.63,0,0,1-1.65,1.61,1.43,1.43,0,0,1-.29,0c-2-.12-3.19.24-3.19,2.81,0,2.73,1.32,3.19,3.48,3a1.56,1.56,0,0,1,1.82,1.25,1.7,1.7,0,0,1,0,.39c.09,1.51-.94,1.75-2.1,1.76H268c-1.91.08-2.54-.91-2.49-2.75.07-2.71,0-5.43,0-8.14Z" transform="translate(-58.88 -78.99)"/><path class="e" d="M280,101.34a16.27,16.27,0,0,1-2.46-.76,1.81,1.81,0,0,1-1.19-2.27h0A1.44,1.44,0,0,1,278,97.1a1.41,1.41,0,0,1,.56.21c1.43.69,2.87,1.13,3.75-.68s-.08-3.34-1.51-4.56c-1.73-1.47-3.56-2.86-4.17-5.29a6,6,0,0,1,1.69-6.31,5.43,5.43,0,0,1,6-.86c1,.41,1.6,1,1.28,2.14a1.43,1.43,0,0,1-1.68,1.12l-.16,0c-1.32-.23-2.79-.55-3.42,1.11-.74,1.94.72,3,1.92,4.06,2.42,2.07,4.45,4.27,4.1,7.88S283.92,101.35,280,101.34Z" transform="translate(-58.88 -78.99)"/><path class="e" d="M200,316c0,4.94-2.83,9-3.8,13.72-1.44,6.91-3.41,13.72-2.27,20.91,1.47.07,1.29-1,1.25-1.69-.41-6.31,2.31-12,3.43-18,.37-2,1.87-2.89,3.89-2.63,2.41.31,3.88,1.52,3.82,4.2-5.75-4.35-5.74-4.35-7.68,3a97.71,97.71,0,0,0-2.71,14.89c-.16,1.46-.16,3.25-2.35,3-2-.26-1.45-1.85-1.41-3.17a100.6,100.6,0,0,1,5.22-28.76C198,319.52,198.49,317.51,200,316Z" transform="translate(-58.88 -78.99)"/><path class="e" d="M160.12,320.9c-1,4.57-3.92,8.24-5.5,12.55-.58,1.57-2.6,1-3.76,1.59-1.84.95-5.87-.65-5,3.93a26,26,0,0,0-9.36,11.17c-.35.81-.62,2.08-1.88,1.43-.86-.43-.54-1.4-.27-2.18,2.7-7.77,7.3-13.61,15.59-15.2a5.59,5.59,0,0,0,4.83-4C156,326.87,157.36,323.41,160.12,320.9Z" transform="translate(-58.88 -78.99)"/><path class="e" d="M287.07,338.08c2.53.05,2.47-.95.9-2.44-2-1.89-4.23-3.49-5.76-5.85,8.25,4.39,12.71,11.87,15.81,20.44.24.67.78,1.71-.35,2s-1.31-.66-1.62-1.41C294,345.91,290.52,342,287.07,338.08Z" transform="translate(-58.88 -78.99)"/><path class="e" d="M190.5,297.51c-2.78,2.92-6.75,3.65-10,5.75-6.87,4.46-13.35,9.35-18.27,16.09a4.61,4.61,0,0,1-2.13,1.59c4.14-8,10.81-13.28,18.1-17.86C182,300.68,186,298.41,190.5,297.51Z" transform="translate(-58.88 -78.99)"/><path class="e" d="M282.27,329.82c-8.15-1.77-14.2-6.33-18.41-13.78-1.23-2.19-3.63-3.66-5.41-5.54-1-1-2.43-1.71-2.66-3.38,5.94,2.73,9.63,7.81,12.87,13.25a11.22,11.22,0,0,0,6.86,5.55C278,326.63,280.57,327.53,282.27,329.82Z" transform="translate(-58.88 -78.99)"/><path class="e" d="M209.48,337.43c2.11-.23,1.5-1.91,1.62-3.21a28.37,28.37,0,0,1,4,16.08c0,.7-.19,1.51-.92,1.58-1.05.11-1.15-.83-1.25-1.65C212.42,345.78,210.83,341.64,209.48,337.43Zm4.15,5.71-.52-1c-.1.23-.29.46-.28.67a5,5,0,0,0,.25,1.08Z" transform="translate(-58.88 -78.99)"/><path class="e" d="M243,313.66c-2-.6-2.93-2.59-4.39-3.88a2.38,2.38,0,0,1,2.32-3.89q7,3.11,14,6.37c1.18.55.81,1.85.93,2.88-5-2.53-9.36-6.34-15.27-7.43C240.38,310.35,243.07,311.42,243,313.66Z" transform="translate(-58.88 -78.99)"/><path class="e" d="M180.43,338.08c2.16-.3,1.93,2,2.81,3.39,1.42-2-.61-3.3,0-4.74,3.1,4.49,3.19,9.67,3.24,14.85,0,.65.1,1.52-.76,1.66-1.18.19-1.13-.84-1.2-1.61A34.36,34.36,0,0,0,180.43,338.08Z" transform="translate(-58.88 -78.99)"/><path class="e" d="M248.57,302.22c-4.45.15-7.71-3.2-11.78-4.34-1.51-.42-4.23.65-4.9-2.17A35.77,35.77,0,0,1,248.57,302.22Z" transform="translate(-58.88 -78.99)"/><path class="e" d="M244.67,328.34a23.67,23.67,0,0,1,4.81,15.47Q247.08,336.07,244.67,328.34Z" transform="translate(-58.88 -78.99)"/><path class="e" d="M211,334.11l-7.89-11.2C207.33,325.46,209.67,329.41,211,334.11Z" transform="translate(-58.88 -78.99)"/><path class="e" d="M231.18,295.6c-7.79.27-8.92-.79-8.78-8.27C223.51,292.12,226.33,295,231.18,295.6Z" transform="translate(-58.88 -78.99)"/><path class="e" d="M271.92,315c-1.27,0-2.43,0-2.46-1.47,0-1.74,1.33-1.66,2.51-1.62,1,0,2.31-.09,2.3,1.42S272.92,315.08,271.92,315Z" transform="translate(-58.88 -78.99)"/><path class="e" d="M284.26,313.75c-.34,1.72-1.74,1.25-2.85,1.27a1.43,1.43,0,0,1-1.65-1.19,1.26,1.26,0,0,1,0-.58c.25-1.89,1.75-1.23,2.82-1.29S284.34,312.46,284.26,313.75Z" transform="translate(-58.88 -78.99)"/><path class="e" d="M291.74,312c1.22,0,2.34.09,2.2,1.67s-1.34,1.42-2.39,1.44-2.2-.25-2.1-1.73S290.84,312,291.74,312Z" transform="translate(-58.88 -78.99)"/><path class="c" d="M190.4,306.84c2.21-1.69,4.64-2.42,8.47-1.94-2.83,1.3-4.19,3.24-6.64,3.09C191.92,307.09,191.19,306.93,190.4,306.84Z" transform="translate(-58.88 -78.99)"/><path class="e" d="M190.42,316.77c1.74-2.82,3.62-5.41,7.48-4.65C195.7,314.16,193,315.4,190.42,316.77Z" transform="translate(-58.88 -78.99)"/><path class="e" d="M198.42,311.93c.64-2.37,2.67-2,3.85-1.34,1.75.93-.4,1.93-.54,3a2.72,2.72,0,0,1-1.75,2.49C199,314.86,203.68,311.42,198.42,311.93Z" transform="translate(-58.88 -78.99)"/><path class="e" d="M239.81,319.38a11.41,11.41,0,0,1,4.64,8.55A40.19,40.19,0,0,1,239.81,319.38Z" transform="translate(-58.88 -78.99)"/><path class="e" d="M253.51,305.36c-2.45.31-3.5-1.68-4.89-3.12A8,8,0,0,1,253.51,305.36Z" transform="translate(-58.88 -78.99)"/><path class="e" d="M206.28,332.5c1.73,1.2,3.41,2.43,3.22,4.95A10.58,10.58,0,0,1,206.28,332.5Z" transform="translate(-58.88 -78.99)"/><path class="e" d="M236.76,315.23c1.82.78,3.25,1.86,3.07,4.18A8,8,0,0,1,236.76,315.23Z" transform="translate(-58.88 -78.99)"/><path class="e" d="M183,336.56c-.64-1.14-2.07-1.78-2.08-3.34C182.59,333.71,182.66,335.23,183,336.56Z" transform="translate(-58.88 -78.99)"/><path class="e" d="M255.77,307.11a2.18,2.18,0,0,1-2.29-1.76C254.52,305.55,255.48,305.87,255.77,307.11Z" transform="translate(-58.88 -78.99)"/><path class="e" d="M179.35,330.77c-.7-.78-2.22-1.51-.15-2.46Z" transform="translate(-58.88 -78.99)"/><path class="e" d="M203,322.64a4.57,4.57,0,0,1-.22-.62l.3-.2C203.07,322.09,203.05,322.36,203,322.64Z" transform="translate(-58.88 -78.99)"/><path class="a" d="M233.65,228.57a35.49,35.49,0,0,1-3.5,14.55c-1.08,2.16-2.3,2.94-4.73,1.87-6.46-2.85-13-5.44-19.53-8.17-1.47-.62-1.94-1.16-2.24-3.42-.68-5.27-3.32-10.45-8.53-12.81-2.85-1.29-4.77-3.45-7-5.32-1.52-1.26-2-7.4-1.14-9a4.46,4.46,0,0,1,5.13-2.16c1.37.33,2.19,2.41,1.53,4-.89,2.11,3.7,2.5,1.25,4.85,3,3.94,5.36,9,9.27,11.48a24.38,24.38,0,0,0,12.37,3.63c4.16,0,8.07-1.33,12-2.62.36-.12.9.06,1.11-.16.9-.92.87-3.43,2.88-2.38,1.82,1,.93,3.18,1.15,4.86A5.35,5.35,0,0,1,233.65,228.57Z" transform="translate(-58.88 -78.99)"/><path class="a" d="M278.14,202.43a.35.35,0,0,0,.15-.47l0-.05c.61-1.42,1.62-2.69,1.62-4.35.53-.53,1.06-2.07,1.4-1.6,1.26,1.72,3.71,2.24,4.29,4.52,1.8,7.12-1.17,13.29-3.75,19.53-.16.38-1,.86-1.25.73-2.31-1.44-3.2,1.73-4.55,1.62-3.72-.31-1.74,2.94-2.79,3.92a10.43,10.43,0,0,1-5.1,2.31c-1.89.35-4.86,3.52-4.51,5.56.53,3.07-.06,5.13-3.48,6.2-5.7,1.79-11.35,3.71-17.17,5.07-1.9.44-3.17.51-2.2-2.31.86-2.49,1.76-4.8,3.87-6.42a32.21,32.21,0,0,0,8.84-8.06l7.16-8.17c1.84-.63,3.77.79,5.6-.23l.06.13c2,2.07,4.14,1.08,6-.09C279.11,216,278.21,209.07,278.14,202.43Z" transform="translate(-58.88 -78.99)"/><path class="a" d="M242.8,209l.3-.72a7.59,7.59,0,0,0,3.32-4.89h0a2.74,2.74,0,0,0,1.43-2.59.39.39,0,0,0,.24-.47c2.36-1.76,2-5.28,4.42-7l.26.26-.24,8.79h0c-1.26.7-.72,1.19.18,1.63l.06.06c.32,1.21-.66,3,1.42,3.42-.17,2.62.53,4.72,3.16,5.69-.18.65-.65,1.75-.48,1.87,4.24,3,.12,4.21-1.17,6a31.79,31.79,0,0,1-2.32,2.69h0a.84.84,0,0,0-.89.77v0h0l-1,.8-3.66,3.46a2.27,2.27,0,0,0-2.38,1.62h0l-.9.72h0c-2.25.7-2.19-.81-2.36-2.4-.43-4.11-.64-8.29-2.4-12.14h0l.3-3.12h0A6.12,6.12,0,0,0,242.8,209Z" transform="translate(-58.88 -78.99)"/><path class="a" d="M242.75,203.11c-.1.09-.23.16-.29.28-1.1,2.12-2.06,5.37-4.44,5-1.78-.28-1.94-3.69-2.1-5.95-.12-5.81-.21-11.63-.37-17.44-.07-2.53,1-3.83,3.51-3.81h0c1.68.84,3.16,2.08,5.32.84,2.68-1.54,4.55-.16,6.48,2s-.12,3.62-.58,5.34c-.41,1.52-1.77,2.65-1.72,4.37l-.7,1.36a3.92,3.92,0,0,0-1.79,3.08h0C244.53,199.54,243.76,201.41,242.75,203.11Z" transform="translate(-58.88 -78.99)"/><path class="e" d="M239.06,181.18c-2.51,0-3.58,1.28-3.51,3.81.16,5.81.25,11.63.37,17.44-.23-3.81-3.3-7.11-1.83-11.26.37-1-1.19-2.11-1.3-1.5-.49,2.66-3.64,2.45-4.25,4.71l-2.32-1.56-10.63-12a83,83,0,0,1-.13,9.33c-.12,1,1,3.34-1.6,3.34-2.11-1.67.89-2.63.54-4.16-1-4.31.23-8.75-.49-13-.46-2.73.36-2.51,2.12-1.67,0,.93-.38,1.92.36,2.72a182.56,182.56,0,0,0,14.53,14.38c.39-3.19.61-5.75,1-8.27.3-1.78-.32-3-1.86-3.55-3.45-1.28-5.46-4.33-8.06-6.66.51-.09,1.19-.44,1.5-.23,3.73,2.6,7.76,4.85,10.57,8.79C235.38,180.71,236.65,177.21,239.06,181.18Z" transform="translate(-58.88 -78.99)"/><path class="a" d="M222.05,173.28c2.6,2.33,4.61,5.38,8.06,6.66,1.54.56,2.16,1.77,1.86,3.55-.42,2.52-.64,5.08-1,8.27a182.81,182.81,0,0,1-14.55-14.38c-.74-.8-.4-1.79-.36-2.72C217.92,173.79,220.24,174.68,222.05,173.28Z" transform="translate(-58.88 -78.99)"/><path class="a" d="M213.86,193.52c2.6,0,1.48-2.32,1.6-3.34a83,83,0,0,0,.13-9.33l10.63,12c.08,1.74-1.16,1.33-2.12,1.38l-.18-.11c-.27-.48-.52-.42-.74,0-3.15,1-6.3,2.15-9.66,1Z" transform="translate(-58.88 -78.99)"/><path class="e" d="M248.57,193.79c0-1.72,1.31-2.85,1.72-4.37.46-1.72,2.63-3,.58-5.34s-3.8-3.59-6.48-2c-2.16,1.24-3.64,0-5.32-.84,2.62-.76,5.36-.84,8-1.31,3.06-.55,5.8,2.7,5.73,5-.13,5,2.65,9.55,1.42,14.55-.3,1.2.39,2.92-1.75,3l.24-8.79a5,5,0,0,0,.41-.5l-.24-.25-.43.49c-2.37,1.76-2.06,5.28-4.42,7,0-.92-.11-1.84-.17-2.76C250.72,196.81,248.67,195.11,248.57,193.79Z" transform="translate(-58.88 -78.99)"/><path class="e" d="M278.14,202.43c.07,6.64,1,13.61-5.82,17.84-1.88,1.17-4,2.16-6,.09a10.24,10.24,0,0,0,6.29-2.05c2.2-1.48,4.32-3.52,4.1-7.2C276.52,208.29,275.08,204.83,278.14,202.43Z" transform="translate(-58.88 -78.99)"/><path class="e" d="M253.36,223.63c.78-.89,1.62-1.73,2.32-2.69,1.29-1.75,5.41-3,1.17-6-.17-.12.3-1.22.48-1.87,2.41,1.09,3.31,3.09,3.26,5.67h0C257.49,219.33,256.92,223.87,253.36,223.63Z" transform="translate(-58.88 -78.99)"/><path class="e" d="M213.52,195.11c3.36,1.18,6.51,0,9.66-1l.38.06.36-.11.18.11,3.66,3.38a12,12,0,0,0-11.4-.23C214.24,198.35,213.27,197.32,213.52,195.11Z" transform="translate(-58.88 -78.99)"/><path class="e" d="M239.83,216.4c1.76,3.85,2,8,2.4,12.14.17,1.59.11,3.1,2.36,2.4-1.17,2.28-2.77,2.13-3-.2C241.27,225.91,239.06,221.35,239.83,216.4Z" transform="translate(-58.88 -78.99)"/><path class="e" d="M253.48,228.63a32.21,32.21,0,0,1-8.84,8.06C247.09,233.43,249.25,229.84,253.48,228.63Z" transform="translate(-58.88 -78.99)"/><path class="c" d="M227.76,197.58l-3.66-3.38c1,0,2.2.36,2.12-1.38l2.32,1.56h.08a1.74,1.74,0,0,0,1.55,1.64h0c.32,1.35.21,2.43-1.51,2.48Z" transform="translate(-58.88 -78.99)"/><path class="e" d="M266.24,220.23c-1.83,1-3.76-.4-5.6.23,0-.56,0-1.12-.05-1.67h0C262.7,218.33,264.92,217.58,266.24,220.23Z" transform="translate(-58.88 -78.99)"/><path class="e" d="M228.67,198.51c1.72,0,1.83-1.13,1.51-2.48,2.11,0,1.71,1.61,1.58,2.89a1.69,1.69,0,0,1-1.69,1.71h-.13C228.64,200.56,228.82,199.4,228.67,198.51Z" transform="translate(-58.88 -78.99)"/><path class="e" d="M246.42,203.34a7.59,7.59,0,0,1-3.32,4.89C243.05,205.78,244.63,204.49,246.42,203.34Z" transform="translate(-58.88 -78.99)"/><path class="e" d="M242.8,209a6.11,6.11,0,0,1-2.71,4.32C239.5,210.85,241.18,209.92,242.8,209Z" transform="translate(-58.88 -78.99)"/><path class="e" d="M242.75,203.11c1-1.7,1.78-3.57,3.32-4.9.06.86.13,1.72.19,2.57h0C244.51,200.67,244.47,203.23,242.75,203.11Z" transform="translate(-58.88 -78.99)"/><path class="e" d="M254.17,207.42c-2.08-.43-1.1-2.21-1.42-3.42C254.83,204.45,254.06,206.12,254.17,207.42Z" transform="translate(-58.88 -78.99)"/><path class="e" d="M279.92,197.56c0,1.66-1,2.93-1.62,4.35C278.32,200.28,277.11,198.14,279.92,197.56Z" transform="translate(-58.88 -78.99)"/><path class="e" d="M240.11,213.23l-.3,3.12C238,215.12,237.73,214,240.11,213.23Z" transform="translate(-58.88 -78.99)"/><path class="e" d="M247.81,200.79a2.74,2.74,0,0,1-1.43,2.59c0-.85-.09-1.71-.14-2.57h0Z" transform="translate(-58.88 -78.99)"/><path class="e" d="M245.47,230.25a2.27,2.27,0,0,1,2.38-1.62C247.73,230.2,246.64,230.29,245.47,230.25Z" transform="translate(-58.88 -78.99)"/><path class="e" d="M230.17,196a1.74,1.74,0,0,1-1.55-1.64C229.75,194.31,230.28,194.84,230.17,196Z" transform="translate(-58.88 -78.99)"/><path class="e" d="M252.69,204c-.9-.44-1.44-.93-.18-1.63Z" transform="translate(-58.88 -78.99)"/><path class="e" d="M251.51,225.17l1-.8A.91.91,0,0,1,251.51,225.17Z" transform="translate(-58.88 -78.99)"/><path class="e" d="M244.56,231l.9-.72Z" transform="translate(-58.88 -78.99)"/><path class="e" d="M252.49,224.41a.83.83,0,0,1,.87-.79h0Z" transform="translate(-58.88 -78.99)"/><path class="a" d="M228.85,86c.26-1.22-.66-3.12,1.48-3.15,1.92,0,2.21,1.66,2.24,3.2s-.24,3.28-2.12,3.3C228,89.39,229.22,87.22,228.85,86Z" transform="translate(-58.88 -78.99)"/><path class="a" d="M242,90.42c.21-2,.3-3.71.6-5.44.19-1,.61-2.22,1.87-2.33s1.81,1,2.06,2.07A21.86,21.86,0,0,1,246.42,96c-.26.92-.71,1.83-1.87,1.77a2,2,0,0,1-1.83-1.86C242.36,94,242.23,92.12,242,90.42Z" transform="translate(-58.88 -78.99)"/><path class="c" d="M189.15,85c1.85,2.24,1.4,4.7,2,6.83.3,1.08-.38,1.8-1.55,1.78s-1.64-.82-1.5-1.89C188.35,89.58,188.74,87.49,189.15,85Z" transform="translate(-58.88 -78.99)"/><path class="b" d="M213.63,343.14l-.55.77a5,5,0,0,1-.25-1.08,2.09,2.09,0,0,1,.28-.67Z" transform="translate(-58.88 -78.99)"/><path class="b" d="M247.81,200.79h-1.55c-.06-.85-.13-1.71-.19-2.57h0l1.73-.73.07.06c.06.92.12,1.84.17,2.76A.39.39,0,0,1,247.81,200.79Z" transform="translate(-58.88 -78.99)"/><path class="b" d="M248.57,193.79c.1,1.32,2.15,3-.69,3.77l-.07-.06.06-2.35C248.1,194.69,248.34,194.24,248.57,193.79Z" transform="translate(-58.88 -78.99)"/><path class="e" d="M247.92,195.15l-.06,2.35-1.73.73A3.92,3.92,0,0,1,247.92,195.15Z" transform="translate(-58.88 -78.99)"/><path class="c" d="M223.92,194.09l-.36.11-.38-.06C223.4,193.67,223.65,193.61,223.92,194.09Z" transform="translate(-58.88 -78.99)"/><path class="a" d="M252.47,193.28l.43-.49c.09.09.25.23.24.25a5,5,0,0,1-.41.5Z" transform="translate(-58.88 -78.99)"/></svg>